<svg xmlns="http://www.w3.org/2000/svg" xmlns:xlink="http://www.w3.org/1999/xlink" id="body_2" preserveAspectRatio="xMinYMin meet" viewBox="0 0 1213 683"><defs><clipPath id="1"><path d="M0 512L0 0L0 0L910 0L910 0L910 512L910 512L0 512z" /></clipPath><clipPath id="2"><path d="M0 511.92L909.84 511.92L909.84 511.92L909.84 0L909.84 0L0 0z" /></clipPath></defs><g transform="matrix(1.333333 0 0 1.333333 0 0)"><g><g clip-path="url(#1)"><g clip-path="url(#2)"><path transform="matrix(1 0 0 -1 0 512)" d="M0 512L909.84 512L909.84 512L909.84 0.08001144L909.84 0.08001144L0 0.08001144z" stroke="none" fill="#FFFFFE" fill-rule="winding" /></g><path transform="matrix(1 0 0 -1 0 512)" d="M0 512L910 512L910 512L910 1.335144E-05L910 1.335144E-05L0 1.335144E-05z" stroke="none" fill="#FFFFFE" fill-rule="winding" /><path transform="matrix(1 0 0 -1 0 512)" d="M513 359.3408L726.2079 359.3408L726.2079 359.3408L726.2079 398L726.2079 398L513 398z" stroke="none" fill="#EEEEEE" fill-rule="evenodd" /><path transform="matrix(1 0 0 -1 0 512)" d="M434 377.5673C 433.9657 385.2473 438.0431 392.3587 444.6886 396.2086C 451.3339 400.0586 459.5313 400.0586 466.1768 396.2086C 472.8222 392.3587 476.8997 385.2473 476.8653 377.5673C 476.8997 369.8873 472.8222 362.776 466.1768 358.9261C 459.5313 355.0761 451.3339 355.0761 444.6886 358.9261C 438.0431 362.776 433.9657 369.8873 434 377.5673z" stroke="none" fill="#FFFFFE" fill-rule="evenodd" /><path transform="matrix(1 0 0 -1 0 512)" d="M434 377.5673C 433.9657 385.2473 438.0432 392.3587 444.6886 396.2086C 451.334 400.0586 459.5314 400.0586 466.1768 396.2086C 472.8222 392.3587 476.8997 385.2473 476.8654 377.5673C 476.8997 369.8873 472.8222 362.776 466.1768 358.9261C 459.5314 355.0761 451.334 355.0761 444.6886 358.9261C 438.0432 362.776 433.9657 369.8873 434 377.5673z" stroke="#212121" stroke-width="1" fill="none" /><path transform="matrix(1 0 0 -1 0 512)" d="M513 359.2823L520.8998 359.2823L520.8998 359.2823L520.8998 398L520.8998 398L513 398z" stroke="none" fill="#202020" fill-rule="evenodd" /><path transform="matrix(1 0 0 -1 0 512)" d="M513 288.3408L726.2079 288.3408L726.2079 288.3408L726.2079 327L726.2079 327L513 327z" stroke="none" fill="#EDEDED" fill-rule="evenodd" /><path transform="matrix(1 0 0 -1 0 512)" d="M434 306.5673C 433.9657 314.2473 438.0431 321.3587 444.6886 325.2086C 451.3339 329.0586 459.5313 329.0586 466.1768 325.2086C 472.8222 321.3587 476.8997 314.2473 476.8653 306.5673C 476.8997 298.8873 472.8222 291.776 466.1768 287.9261C 459.5313 284.0761 451.3339 284.0761 444.6886 287.9261C 438.0431 291.776 433.9657 298.8873 434 306.5673z" stroke="none" fill="#FFFFFE" fill-rule="evenodd" /><path transform="matrix(1 0 0 -1 0 512)" d="M434 306.5673C 433.9657 314.2473 438.0432 321.3587 444.6886 325.2086C 451.334 329.0586 459.5314 329.0586 466.1768 325.2086C 472.8222 321.3587 476.8997 314.2473 476.8654 306.5673C 476.8997 298.8873 472.8222 291.776 466.1768 287.9261C 459.5314 284.0761 451.334 284.0761 444.6886 287.9261C 438.0432 291.776 433.9657 298.8873 434 306.5673z" stroke="#212121" stroke-width="1" fill="none" /><path transform="matrix(1 0 0 -1 0 512)" d="M513 289.2823L520.8998 289.2823L520.8998 289.2823L520.8998 328L520.8998 328L513 328z" stroke="none" fill="#FFCA24" fill-rule="evenodd" /><path transform="matrix(1 0 0 -1 0 512)" d="M513 218.3408L726.2079 218.3408L726.2079 218.3408L726.2079 257L726.2079 257L513 257z" stroke="none" fill="#EDEDED" fill-rule="evenodd" /><path transform="matrix(1 0 0 -1 0 512)" d="M434 236.5673C 433.9657 244.2473 438.0431 251.3587 444.6886 255.2086C 451.3339 259.0586 459.5313 259.0586 466.1768 255.2086C 472.8222 251.3587 476.8997 244.2473 476.8653 236.5673C 476.8997 228.8873 472.8222 221.776 466.1768 217.9261C 459.5313 214.0761 451.3339 214.0761 444.6886 217.9261C 438.0431 221.776 433.9657 228.8873 434 236.5673z" stroke="none" fill="#FFFFFE" fill-rule="evenodd" /><path transform="matrix(1 0 0 -1 0 512)" d="M434 236.5673C 433.9657 244.2473 438.0432 251.3587 444.6886 255.2086C 451.334 259.0586 459.5314 259.0586 466.1768 255.2086C 472.8222 251.3587 476.8997 244.2473 476.8654 236.5673C 476.8997 228.8873 472.8222 221.776 466.1768 217.9261C 459.5314 214.0762 451.334 214.0762 444.6886 217.9261C 438.0432 221.776 433.9657 228.8873 434 236.5673z" stroke="#212121" stroke-width="1" fill="none" /><path transform="matrix(1 0 0 -1 0 512)" d="M513 218.2823L520.8998 218.2823L520.8998 218.2823L520.8998 257L520.8998 257L513 257z" stroke="none" fill="#202020" fill-rule="evenodd" /><path transform="matrix(1 0 0 -1 0 512)" d="M513 146.3408L726.2079 146.3408L726.2079 146.3408L726.2079 185L726.2079 185L513 185z" stroke="none" fill="#EDEDED" fill-rule="evenodd" /><path transform="matrix(1 0 0 -1 0 512)" d="M434 164.5673C 433.9657 172.2473 438.0431 179.3587 444.6886 183.2086C 451.3339 187.0586 459.5313 187.0586 466.1768 183.2086C 472.8222 179.3587 476.8997 172.2473 476.8653 164.5673C 476.8997 156.8873 472.8222 149.776 466.1768 145.9261C 459.5313 142.0761 451.3339 142.0761 444.6886 145.9261C 438.0431 149.776 433.9657 156.8873 434 164.5673z" stroke="none" fill="#FFFFFE" fill-rule="evenodd" /><path transform="matrix(1 0 0 -1 0 512)" d="M434 164.5673C 433.9657 172.2473 438.0432 179.3587 444.6886 183.2086C 451.334 187.0586 459.5314 187.0586 466.1768 183.2086C 472.8222 179.3587 476.8997 172.2473 476.8654 164.5673C 476.8997 156.8873 472.8222 149.776 466.1768 145.9261C 459.5314 142.0762 451.334 142.0762 444.6886 145.9261C 438.0432 149.776 433.9657 156.8873 434 164.5673z" stroke="#212121" stroke-width="1" fill="none" /><path transform="matrix(1 0 0 -1 0 512)" d="M513 146.2823L520.8998 146.2823L520.8998 146.2823L520.8998 185L520.8998 185L513 185z" stroke="none" fill="#FFCA24" fill-rule="evenodd" /><path transform="matrix(1 0 0 -1 0 512)" d="M513 75.34079L726.2079 75.34079L726.2079 75.34079L726.2079 114L726.2079 114L513 114z" stroke="none" fill="#EDEDED" fill-rule="evenodd" /><path transform="matrix(1 0 0 -1 0 512)" d="M434 93.56734C 433.9657 101.2473 438.0431 108.3587 444.6886 112.2086C 451.3339 116.0586 459.5313 116.0586 466.1768 112.2086C 472.8222 108.3587 476.8997 101.2473 476.8653 93.56734C 476.8997 85.88734 472.8222 78.77601 466.1768 74.92608C 459.5313 71.07616 451.3339 71.07616 444.6886 74.92608C 438.0431 78.77601 433.9657 85.88734 434 93.56734z" stroke="none" fill="#FFFFFE" fill-rule="evenodd" /><path transform="matrix(1 0 0 -1 0 512)" d="M434 93.56734C 433.9657 101.2473 438.0432 108.3587 444.6886 112.2086C 451.334 116.0586 459.5314 116.0586 466.1768 112.2086C 472.8222 108.3587 476.8997 101.2473 476.8654 93.56734C 476.8997 85.88734 472.8222 78.776 466.1768 74.92609C 459.5314 71.07616 451.334 71.07616 444.6886 74.92609C 438.0432 78.776 433.9657 85.88734 434 93.56734z" stroke="#212121" stroke-width="1" fill="none" /><path transform="matrix(1 0 0 -1 0 512)" d="M513 75.28228L520.8998 75.28228L520.8998 75.28228L520.8998 114L520.8998 114L513 114z" stroke="none" fill="#202020" fill-rule="evenodd" /></g></g></g></svg>