<svg xmlns="http://www.w3.org/2000/svg" xmlns:xlink="http://www.w3.org/1999/xlink" id="body_3" preserveAspectRatio="xMinYMin meet" viewBox="0 0 1213 683"><defs><clipPath id="1"><path d="M0 512L0 0L0 0L910 0L910 0L910 512L910 512L0 512z" /></clipPath><clipPath id="2"><path d="M0 511.92L909.84 511.92L909.84 511.92L909.84 0L909.84 0L0 0z" /></clipPath><clipPath id="3"><path d="M236.917 -0.468689L486.9808 -0.468689L486.9808 -0.468689L486.9808 504.6254L486.9808 504.6254L236.917 504.6254z" /></clipPath><clipPath id="4"><path d="M236.64 504.72L487.2 504.72L487.2 504.72L487.2 -0.7200317L487.2 -0.7200317L236.64 -0.7200317z" /></clipPath><clipPath id="5"><path d="M9.171889 -0.375L259.2357 -0.375L259.2357 -0.375L259.2357 504.7191L259.2357 504.7191L9.171889 504.7191z" /></clipPath><clipPath id="6"><path d="M8.88 504.72L259.44 504.72L259.44 504.72L259.44 -0.7200317L259.44 -0.7200317L8.88 -0.7200317z" /></clipPath><clipPath id="7"><path d="M43.20937 70.9194L226.865 70.9194L226.865 70.9194L226.865 442.2083L226.865 442.2083L43.20937 442.2083z" /></clipPath><clipPath id="8"><path d="M43.2 442.56L227.28 442.56L227.28 442.56L227.28 70.79999L227.28 70.79999L43.2 70.79999z" /></clipPath><clipPath id="9"><path d="M271.084 71.15091L455.0526 71.15091L455.0526 71.15091L455.0526 441.977L455.0526 441.977L271.084 441.977z" /></clipPath><clipPath id="10"><path d="M270.72 442.08L455.28 442.08L455.28 442.08L455.28 71.03998L455.28 71.03998L270.72 71.03998z" /></clipPath><clipPath id="11"><path d="M271.078 69.84921L455.0831 69.84921L455.0831 69.84921L455.0831 442.0282L455.0831 442.0282L271.078 442.0282z" /></clipPath><clipPath id="12"><path d="M270.96 442.08L455.52 442.08L455.52 442.08L455.52 69.84L455.52 69.84L270.96 69.84z" /></clipPath><clipPath id="13"><path d="M42.98559 70.6893L226.865 70.6893L226.865 70.6893L226.865 446.0717L226.865 446.0717L42.98559 446.0717z" /></clipPath><clipPath id="14"><path d="M42.96 446.4L227.04 446.4L227.04 446.4L227.04 70.56L227.04 70.56L42.96 70.56z" /></clipPath><clipPath id="15"><path d="M270.552 70.6893L454.0184 70.6893L454.0184 70.6893L454.0184 438.983L454.0184 438.983L270.552 438.983z" /></clipPath><clipPath id="16"><path d="M270.48 439.44L454.32 439.44L454.32 439.44L454.32 70.56L454.32 70.56L270.48 70.56z" /></clipPath></defs><g transform="matrix(1.333333 0 0 1.333333 0 0)"><g><g clip-path="url(#1)"><g clip-path="url(#2)"><path transform="matrix(1 0 0 -1 0 512)" d="M0 512L909.84 512L909.84 512L909.84 0.08001144L909.84 0.08001144L0 0.08001144z" stroke="none" fill="#FFFFFE" fill-rule="winding" /></g><path transform="matrix(1 0 0 -1 0 512)" d="M0 512L910 512L910 512L910 1.335144E-05L910 1.335144E-05L0 1.335144E-05z" stroke="none" fill="#FFFFFE" fill-rule="winding" /><g clip-path="url(#3)"><g clip-path="url(#4)"><g transform="matrix(0.2880919 0 0 0.3708473 236.917 -0.468689)"><g transform="matrix(1 0 0 1 0 0)"><image x="0" y="0" xlink:href="img_03.png" width="868" height="1362" /></g></g></g></g><path transform="matrix(1 0 0 -1 0 512)" d="M236.542 512.8437L487.3558 512.8437L487.3558 512.8437L487.3558 6.999573L487.3558 6.999573L236.542 6.999573z" stroke="#FFFFFE" stroke-width="0.75" fill="none" stroke-opacity="0" /><path transform="matrix(1 0 0 -1 0 512)" d="M521.812 422L718.4271 421.9999" stroke="#FFC000" stroke-width="2" fill="none" /><g clip-path="url(#5)"><g clip-path="url(#6)"><g transform="matrix(0.2880919 0 0 0.3708473 9.171889 -0.375)"><g transform="matrix(1 0 0 1 0 0)"><image x="0" y="0" xlink:href="img_03.png" width="868" height="1362" /></g></g></g></g><path transform="matrix(1 0 0 -1 0 512)" d="M8.796896 512.75L259.6107 512.75L259.6107 512.75L259.6107 6.905884L259.6107 6.905884L8.796896 6.905884z" stroke="#FFFFFE" stroke-width="0.75" fill="none" stroke-opacity="0" /><path transform="matrix(1 0 0 -1 0 512)" d="M858.7509 471.215L882.2412 471.2149" stroke="#BEBEBE" stroke-width="0.5" fill="none" /><g clip-path="url(#7)"><g clip-path="url(#8)"><g transform="matrix(0.3907568 0 0 0.3780946 43.20937 70.91943)"><g transform="matrix(1 0 0 1 0 0)"><image x="0" y="0" xlink:href="img_04.png" width="470" height="982" /></g></g></g></g><path transform="matrix(1 0 0 -1 0 512)" d="M42.83437 441.4556L227.24 441.4556L227.24 441.4556L227.24 69.41669L227.24 69.41669L42.83437 69.41669z" stroke="#FFFFFE" stroke-width="0.75" fill="none" stroke-opacity="0" /><g clip-path="url(#9)"><g clip-path="url(#10)"><g transform="matrix(0.222453 0 0 0.2224512 271.084 71.15091)"><g transform="matrix(1 0 0 1 0 0)"><image x="0" y="0" xlink:href="img_05.png" width="827" height="1667" /></g></g></g></g><path transform="matrix(1 0 0 -1 0 512)" d="M270.709 441.2241L455.4276 441.2241L455.4276 441.2241L455.4276 69.64795L455.4276 69.64795L270.709 69.64795z" stroke="#FFFFFE" stroke-width="0.75" fill="none" stroke-opacity="0" /><g clip-path="url(#11)"><g clip-path="url(#12)"><g transform="matrix(0.2606303 0 0 0.2606295 271.078 69.84924)"><g transform="matrix(1 0 0 1 0 0)"><image x="0" y="0" xlink:href="img_06.png" width="706" height="1428" /></g></g></g></g><path transform="matrix(1 0 0 -1 0 512)" d="M270.703 442.5258L455.458 442.5258L455.458 442.5258L455.458 69.59674L455.458 69.59674L270.703 69.59674z" stroke="#FFFFFE" stroke-width="0.75" fill="none" stroke-opacity="0" /><g clip-path="url(#13)"><g clip-path="url(#14)"><g transform="matrix(0.3054475 0 0 0.3054372 42.98559 70.68933)"><g transform="matrix(1 0 0 1 0 0)"><image x="0" y="0" xlink:href="img_07.png" width="602" height="1229" /></g></g></g></g><path transform="matrix(1 0 0 -1 0 512)" d="M42.6106 441.6857L227.2401 441.6857L227.2401 441.6857L227.2401 65.55334L227.2401 65.55334L42.6106 65.55334z" stroke="#FFFFFE" stroke-width="0.75" fill="none" stroke-opacity="0" /><g clip-path="url(#15)"><g clip-path="url(#16)"><g transform="matrix(0.1798691 0 0 0.1798309 270.552 70.6893)"><g transform="matrix(1 0 0 1 0 0)"><image x="0" y="0" xlink:href="img_08.png" width="1020" height="2048" /></g></g></g></g><path transform="matrix(1 0 0 -1 0 512)" d="M270.177 441.6857L454.3935 441.6857L454.3935 441.6857L454.3935 72.642L454.3935 72.642L270.177 72.642z" stroke="#FFFFFE" stroke-width="0.75" fill="none" stroke-opacity="0" /></g></g></g></svg>