<svg xmlns="http://www.w3.org/2000/svg" xmlns:xlink="http://www.w3.org/1999/xlink" id="body_7" preserveAspectRatio="xMinYMin meet" viewBox="0 0 1213 683"><defs><clipPath id="1"><path d="M0 512L0 0L0 0L910 0L910 0L910 512L910 512L0 512z" /></clipPath><clipPath id="2"><path d="M0 511.92L909.84 511.92L909.84 511.92L909.84 0L909.84 0L0 0z" /></clipPath><clipPath id="3"><path d="M96.21827 166.037L179.562 166.037L179.562 166.037L179.562 249.3807L179.562 249.3807L96.21827 249.3807z" /></clipPath><clipPath id="4"><path d="M96 249.6L180 249.6L180 249.6L180 165.6L180 165.6L96 165.6z" /></clipPath><clipPath id="5"><path d="M406.496 174.752L481.1183 174.752L481.1183 174.752L481.1183 237.9912L481.1183 237.9912L406.496 237.9912z" /></clipPath><clipPath id="6"><path d="M406.32 238.08L481.44 238.08L481.44 238.08L481.44 174.48L481.44 174.48L406.32 174.48z" /></clipPath><clipPath id="7"><path d="M698.795 176.95L771.2047 176.95L771.2047 176.95L771.2047 249.3598L771.2047 249.3598L698.795 249.3598z" /></clipPath><clipPath id="8"><path d="M698.64 249.6L771.6 249.6L771.6 249.6L771.6 176.88L771.6 176.88L698.64 176.88z" /></clipPath></defs><g transform="matrix(1.333333 0 0 1.333333 0 0)"><g><g clip-path="url(#1)"><g clip-path="url(#2)"><path transform="matrix(1 0 0 -1 0 512)" d="M0 512L909.84 512L909.84 512L909.84 0.08001144L909.84 0.08001144L0 0.08001144z" stroke="none" fill="#FFFFFE" fill-rule="winding" /></g><path transform="matrix(1 0 0 -1 0 512)" d="M0 512L910 512L910 512L910 1.335144E-05L910 1.335144E-05L0 1.335144E-05z" stroke="none" fill="#FFFFFE" fill-rule="winding" /><path transform="matrix(1 0 0 -1 0 512)" d="M357.005 416.9056L553.6201 416.9055" stroke="#FFC000" stroke-width="2" fill="none" /><path transform="matrix(1 0 0 -1 0 512)" d="M858.7509 471.215L882.2412 471.2149" stroke="#BEBEBE" stroke-width="0.5" fill="none" /><path transform="matrix(1 0 0 -1 0 512)" d="M287.8275 339.5586L287.8275 127.0403L287.8275 127.0403L286.9908 127.0403L286.9908 127.0403L286.9908 339.5586L286.9908 339.5586L287.8275 339.5586z" stroke="none" fill="#D9D9D9" fill-rule="evenodd" /><path transform="matrix(1 0 0 -1 0 512)" d="M595.8274 339.5586L595.8274 127.0403L595.8274 127.0403L594.9907 127.0403L594.9907 127.0403L594.9907 339.5586L594.9907 339.5586L595.8274 339.5586z" stroke="none" fill="#D9D9D9" fill-rule="evenodd" /><g clip-path="url(#3)"><g clip-path="url(#4)"><g transform="matrix(0.4167185 0 0 0.4167185 96.21827 166.037)"><g transform="matrix(1 0 0 1 0 0)"><image x="0" y="0" xlink:href="img_16.png" width="200" height="200" /></g></g></g></g><path transform="matrix(1 0 0 -1 0 512)" d="M95.84327 346.338L179.937 346.338L179.937 346.338L179.937 262.2443L179.937 262.2443L95.84327 262.2443z" stroke="#FFFFFE" stroke-width="0.75" fill="none" stroke-opacity="0" /><g clip-path="url(#5)"><g clip-path="url(#6)"><g transform="matrix(0.3161961 0 0 0.316196 406.496 174.752)"><g transform="matrix(1 0 0 1 0 0)"><image x="0" y="0" xlink:href="img_17.png" width="236" height="200" /></g></g></g></g><path transform="matrix(1 0 0 -1 0 512)" d="M406.121 337.623L481.4933 337.623L481.4933 337.623L481.4933 273.6338L481.4933 273.6338L406.121 273.6338z" stroke="#FFFFFE" stroke-width="0.75" fill="none" stroke-opacity="0" /><g clip-path="url(#7)"><g clip-path="url(#8)"><g transform="matrix(0.3620488 0 0 0.3620488 698.795 176.95)"><g transform="matrix(1 0 0 1 0 0)"><image x="0" y="0" xlink:href="img_18.png" width="200" height="200" /></g></g></g></g><path transform="matrix(1 0 0 -1 0 512)" d="M698.42 335.425L771.5798 335.425L771.5798 335.425L771.5798 262.2652L771.5798 262.2652L698.42 262.2652z" stroke="#FFFFFE" stroke-width="0.75" fill="none" stroke-opacity="0" /></g></g></g></svg>