<svg xmlns="http://www.w3.org/2000/svg" xmlns:xlink="http://www.w3.org/1999/xlink" id="body_6" preserveAspectRatio="xMinYMin meet" viewBox="0 0 1213 683"><defs><clipPath id="1"><path d="M0 512L0 0L0 0L910 0L910 0L910 512L910 512L0 512z" /></clipPath><clipPath id="2"><path d="M0 511.92L909.84 511.92L909.84 511.92L909.84 0L909.84 0L0 0z" /></clipPath></defs><g transform="matrix(1.333333 0 0 1.333333 0 0)"><g><g clip-path="url(#1)"><g clip-path="url(#2)"><path transform="matrix(1 0 0 -1 0 512)" d="M0 512L909.84 512L909.84 512L909.84 0.08001144L909.84 0.08001144L0 0.08001144z" stroke="none" fill="#FFFFFE" fill-rule="winding" /></g><path transform="matrix(1 0 0 -1 0 512)" d="M0 512L910 512L910 512L910 1.335144E-05L910 1.335144E-05L0 1.335144E-05z" stroke="none" fill="#FFFFFE" fill-rule="winding" /><path transform="matrix(1 0 0 -1 0 512)" d="M357.005 416.9056L553.6201 416.9055" stroke="#FFC000" stroke-width="2" fill="none" /><path transform="matrix(1 0 0 -1 0 512)" d="M858.7509 471.215L882.2412 471.2149" stroke="#BEBEBE" stroke-width="0.5" fill="none" /><path transform="matrix(1 0 0 -1 0 512)" d="M503.133 189.9542C 503.0819 200.7148 509.1392 210.6787 519.0112 216.0729C 528.883 221.4672 541.0605 221.4672 550.9324 216.0729C 560.8043 210.6787 566.8615 200.7148 566.8106 189.9542C 566.8615 179.1936 560.8043 169.2298 550.9324 163.8355C 541.0605 158.4413 528.883 158.4413 519.0112 163.8355C 509.1392 169.2298 503.0819 179.1936 503.133 189.9542z" stroke="none" fill="#4E5966" fill-rule="evenodd" /><path transform="matrix(1 0 0 -1 0 512)" d="M503.067 302.9672C 503.016 313.7278 509.0732 323.6917 518.9451 329.0859C 528.8171 334.4802 540.9945 334.4802 550.8664 329.0859C 560.7383 323.6917 566.7956 313.7278 566.7445 302.9672C 566.7956 292.2066 560.7383 282.2428 550.8664 276.8485C 540.9945 271.4543 528.8171 271.4543 518.9451 276.8485C 509.0732 282.2428 503.016 292.2066 503.067 302.9672z" stroke="none" fill="#FFC000" fill-rule="evenodd" /><path transform="matrix(1 0 0 -1 0 512)" d="M609.133 277.9542C 609.082 288.7148 615.1392 298.6787 625.0112 304.0729C 634.8831 309.4672 647.0605 309.4672 656.9324 304.0729C 666.8043 298.6787 672.8616 288.7148 672.8106 277.9542C 672.8616 267.1936 666.8043 257.2297 656.9324 251.8355C 647.0605 246.4413 634.8831 246.4413 625.0112 251.8355C 615.1392 257.2297 609.082 267.1936 609.133 277.9542z" stroke="none" fill="#FBC02D" fill-rule="evenodd" /><path transform="matrix(1 0 0 -1 0 512)" d="M668.1089 195.9842C 668.0579 206.7448 674.1152 216.7087 683.9871 222.1029C 693.859 227.4972 706.0365 227.4972 715.9084 222.1029C 725.7804 216.7087 731.8376 206.7448 731.7866 195.9842C 731.8376 185.2236 725.7804 175.2598 715.9084 169.8655C 706.0365 164.4713 693.859 164.4713 683.9871 169.8655C 674.1152 175.2598 668.0579 185.2236 668.1089 195.9842z" stroke="none" fill="#FBC02D" fill-rule="evenodd" /><path transform="matrix(1 0 0 -1 0 512)" d="M604.447 99.52922C 604.396 110.2898 610.4532 120.2537 620.3252 125.6479C 630.1971 131.0421 642.3746 131.0421 652.2465 125.6479C 662.1183 120.2537 668.1757 110.2898 668.1246 99.52922C 668.1757 88.7686 662.1183 78.80474 652.2465 73.41049C 642.3746 68.01623 630.1971 68.01623 620.3252 73.41049C 610.4532 78.80474 604.396 88.7686 604.447 99.52922z" stroke="none" fill="#FBC02D" fill-rule="evenodd" /><path transform="matrix(1 0 0 -1 0 512)" d="M185.794 193.9702C 185.743 204.7308 191.8002 214.6947 201.6721 220.0889C 211.5441 225.4832 223.7215 225.4832 233.5935 220.0889C 243.4653 214.6947 249.5226 204.7308 249.4716 193.9702C 249.5226 183.2096 243.4653 173.2458 233.5935 167.8515C 223.7215 162.4573 211.5441 162.4573 201.6721 167.8515C 191.8002 173.2458 185.743 183.2096 185.794 193.9702z" stroke="none" fill="#4E5966" fill-rule="evenodd" /><path transform="matrix(1 0 0 -1 0 512)" d="M483.787 195.9839L489.787 192.9839L489.787 192.9839L483.787 189.9839zM418.133 193.234L484.787 193.2339L484.787 193.2339L484.787 192.7339L484.787 192.7339L418.133 192.734z" stroke="none" fill="#41464B" fill-rule="winding" /><path transform="matrix(1 0 0 -1 0 512)" d="M537.919 258.748L534.9191 264.748L534.9191 264.748L531.919 258.748zM535.169 230.102L535.169 259.748L535.169 259.748L534.669 259.748L534.669 259.748L534.669 230.102z" stroke="none" fill="#41464B" fill-rule="winding" /><path transform="matrix(1 0 0 -1 0 512)" d="M606.0197 246.6201L608.141 252.984L608.141 252.984L601.777 250.8627zM568.9478 213.4373L604.7822 249.2717L604.7822 249.2717L604.4287 249.6253L604.4287 249.6253L568.5942 213.7908z" stroke="none" fill="#41464B" fill-rule="winding" /><path transform="matrix(1 0 0 -1 0 512)" d="M645.0001 193.4089L651.0001 190.4089L651.0001 190.4089L645.0001 187.4089zM578.5591 190.659L646.0001 190.6589L646.0001 190.6589L646.0001 190.1589L646.0001 190.1589L578.5591 190.159z" stroke="none" fill="#41464B" fill-rule="winding" /><path transform="matrix(1 0 0 -1 0 512)" d="M337.133 193.9542C 337.082 204.7148 343.1392 214.6787 353.0112 220.0729C 362.8831 225.4672 375.0605 225.4672 384.9324 220.0729C 394.8043 214.6787 400.8616 204.7148 400.8106 193.9542C 400.8616 183.1936 394.8043 173.2298 384.9324 167.8355C 375.0605 162.4413 362.8831 162.4413 353.0112 167.8355C 343.1392 173.2298 337.082 183.1936 337.133 193.9542z" stroke="none" fill="#4E5966" fill-rule="evenodd" /><path transform="matrix(1 0 0 -1 0 512)" d="M315.787 196.9839L321.787 193.9839L321.787 193.9839L315.787 190.9839zM258.794 194.234L316.787 194.2339L316.787 194.2339L316.787 193.7339L316.787 193.7339L258.794 193.734z" stroke="none" fill="#41464B" fill-rule="winding" /><path transform="matrix(1 0 0 -1 0 512)" d="M601.465 134.1956L603.661 127.857L603.661 127.857L597.2726 129.9034zM569.9777 161.1069L600.2589 131.5296L600.2589 131.5296L599.9095 131.1719L599.9095 131.1719L569.6283 160.7492z" stroke="none" fill="#41464B" fill-rule="winding" /><path transform="matrix(1 0 0 -1 0 512)" d="M506.286 78.95419C 506.2349 89.71482 512.2923 99.67867 522.1641 105.0729C 532.036 110.4672 544.2135 110.4672 554.0854 105.0729C 563.9574 99.67867 570.0146 89.71482 569.9636 78.95419C 570.0146 68.19363 563.9574 58.22978 554.0854 52.83552C 544.2135 47.44127 532.036 47.44127 522.1641 52.83552C 512.2923 58.22978 506.2349 68.19363 506.286 78.95419z" stroke="none" fill="#FBC02D" fill-rule="evenodd" /><path transform="matrix(1 0 0 -1 0 512)" d="M540.9768 124.4691L538.117 118.401L538.117 118.401L534.9784 124.3296zM537.5799 152.2648L538.2507 123.4054L538.2507 123.4054L537.7509 123.3938L537.7509 123.3938L537.0801 152.2532z" stroke="none" fill="#41464B" fill-rule="winding" /><path transform="matrix(1 0 0 -1 0 512)" d="M337.133 302.9542C 337.082 313.7148 343.1392 323.6787 353.0112 329.0729C 362.8831 334.4672 375.0605 334.4672 384.9324 329.0729C 394.8043 323.6787 400.8616 313.7148 400.8106 302.9542C 400.8616 292.1936 394.8043 282.2297 384.9324 276.8355C 375.0605 271.4413 362.8831 271.4413 353.0112 276.8355C 343.1392 282.2297 337.082 292.1936 337.133 302.9542z" stroke="none" fill="#FBC02D" fill-rule="evenodd" /><path transform="matrix(1 0 0 -1 0 512)" d="M341.133 78.95419C 341.082 89.71482 347.1392 99.67867 357.0112 105.0729C 366.8831 110.4672 379.0606 110.4672 388.9324 105.0729C 398.8043 99.67867 404.8616 89.71482 404.8106 78.95419C 404.8616 68.19363 398.8043 58.22978 388.9324 52.83552C 379.0606 47.44127 366.8831 47.44127 357.0112 52.83552C 347.1392 58.22978 341.082 68.19363 341.133 78.95419z" stroke="none" fill="#FBC02D" fill-rule="evenodd" /><path transform="matrix(1 0 0 -1 0 512)" d="M375.133 259.984L372.133 265.984L372.133 265.984L369.133 259.984zM372.383 229.764L372.383 260.984L372.383 260.984L371.883 260.984L371.883 260.984L371.883 229.764z" stroke="none" fill="#41464B" fill-rule="winding" /><path transform="matrix(1 0 0 -1 0 512)" d="M375.133 122.0391L372.133 116.0391L372.133 116.0391L369.133 122.0391zM372.383 156.984L372.383 121.0391L372.383 121.0391L371.883 121.0391L371.883 121.0391L371.883 156.984z" stroke="none" fill="#41464B" fill-rule="winding" /></g></g></g></svg>