<svg xmlns="http://www.w3.org/2000/svg" xmlns:xlink="http://www.w3.org/1999/xlink" id="body_5" preserveAspectRatio="xMinYMin meet" viewBox="0 0 1213 683"><defs><clipPath id="1"><path d="M0 512L0 0L0 0L910 0L910 0L910 512L910 512L0 512z" /></clipPath><clipPath id="2"><path d="M0 511.92L909.84 511.92L909.84 511.92L909.84 0L909.84 0L0 0z" /></clipPath><clipPath id="3"><path d="M599.04 379.44L679.2 379.44L679.2 379.44L679.2 91.44L679.2 91.44L599.04 91.44z" /></clipPath><clipPath id="4"><path d="M599.04 379.44L679.2 379.44L679.2 379.44L679.2 91.44L679.2 91.44L599.04 91.44z" /></clipPath><clipPath id="5"><path d="M599.04 379.44L679.2 379.44L679.2 379.44L679.2 91.44L679.2 91.44L599.04 91.44z" /></clipPath><clipPath id="6"><path d="M599.04 427.92L679.2 427.92L679.2 427.92L679.2 139.68L679.2 139.68L599.04 139.68z" /></clipPath><clipPath id="7"><path d="M599.04 423.36L679.2 423.36L679.2 423.36L679.2 232.56L679.2 232.56L599.04 232.56z" /></clipPath><clipPath id="8"><path d="M759.12 423.36L839.28 423.36L839.28 423.36L839.28 232.56L839.28 232.56L759.12 232.56z" /></clipPath><clipPath id="9"><path d="M599.04 467.52L679.2 467.52L679.2 467.52L679.2 276.72L679.2 276.72L599.04 276.72z" /></clipPath><clipPath id="10"><path d="M599.04 467.52L679.2 467.52L679.2 467.52L679.2 276.72L679.2 276.72L599.04 276.72z" /></clipPath><clipPath id="11"><path d="M759.12 516.24L839.28 516.24L839.28 516.24L839.28 228L839.28 228L759.12 228z" /></clipPath></defs><g transform="matrix(1.333333 0 0 1.333333 0 0)"><g><g clip-path="url(#1)"><g clip-path="url(#2)"><path transform="matrix(1 0 0 -1 0 512)" d="M0 512L909.84 512L909.84 512L909.84 0.08001144L909.84 0.08001144L0 0.08001144z" stroke="none" fill="#FFFFFE" fill-rule="winding" /></g><path transform="matrix(1 0 0 -1 0 512)" d="M0 512L910 512L910 512L910 1.335144E-05L910 1.335144E-05L0 1.335144E-05z" stroke="none" fill="#FFFFFE" fill-rule="winding" /><path transform="matrix(1 0 0 -1 0 512)" d="M357.005 416.9056L553.6201 416.9055" stroke="#FFC000" stroke-width="2" fill="none" /><path transform="matrix(1 0 0 -1 0 512)" d="M858.7509 471.215L882.2412 471.2149" stroke="#BEBEBE" stroke-width="0.5" fill="none" /><path transform="matrix(1 0 0 -1 0 512)" d="M71.7896 334.688C 70.36008 334.6944 69.03646 333.9357 68.31992 332.6991C 67.60331 331.4626 67.60331 329.9372 68.31992 328.7007C 69.03646 327.4642 70.36008 326.7055 71.7896 326.7119C 73.21905 326.7055 74.54268 327.4642 75.25921 328.7007C 75.97583 329.9372 75.97583 331.4626 75.25921 332.6991C 74.54268 333.9357 73.21905 334.6944 71.7896 334.688zM64.41748 312.8813L64.49275 312.8813C 65.22134 312.8803 65.82283 313.4505 65.86047 314.178C 66.10661 318.6833 67.05953 320.9372 67.8026 321.9923L67.8026 321.9923L67.8026 302.6695C 67.80716 301.6658 68.62228 300.8546 69.6263 300.8546C 70.63023 300.8546 71.44543 301.6658 71.44992 302.6695L71.44992 302.6695L71.44992 312.013L71.44992 312.013L72.13378 312.013L72.13378 312.013L72.13378 302.6695C 72.13827 301.6658 72.95346 300.8546 73.9574 300.8546C 74.96142 300.8546 75.77653 301.6658 75.7811 302.6695L75.7811 302.6695L75.7811 321.9809C 75.8563 321.8738 75.93149 321.753 76.00905 321.6254C 76.69291 320.4563 77.49756 318.2184 77.72094 314.1711C 77.76094 313.4454 78.36173 312.8779 79.08866 312.879L79.08866 312.879L79.16622 312.879C 79.9185 312.9243 80.49236 313.5693 80.4496 314.3215C 80.17606 319.2554 79.11378 322.0356 77.94205 323.665C 76.77039 325.2944 75.46417 325.6431 75.17701 325.6704C 75.05527 325.6875 74.93173 325.6875 74.81 325.6704C 74.75354 325.6811 74.69638 325.6872 74.63897 325.6887L74.63897 325.6887L68.94016 325.6887C 68.88197 325.6872 68.82409 325.6811 68.76685 325.6704C 68.6459 325.6875 68.52315 325.6875 68.40212 325.6704C 68.11268 325.6431 66.80646 325.2967 65.63709 323.665C 64.46764 322.0333 63.40079 319.2598 63.12953 314.3215C 63.08811 313.5685 63.66433 312.9241 64.41748 312.8813z" stroke="none" fill="#FBC02D" fill-rule="evenodd" /><path transform="matrix(1 0 0 -1 0 512)" d="M94.78961 334.688C 93.36008 334.6944 92.03646 333.9357 91.31992 332.6991C 90.60331 331.4626 90.60331 329.9372 91.31992 328.7007C 92.03646 327.4642 93.36008 326.7055 94.78961 326.7119C 96.21906 326.7055 97.54268 327.4642 98.25921 328.7007C 98.97583 329.9372 98.97583 331.4626 98.25921 332.6991C 97.54268 333.9357 96.21906 334.6944 94.78961 334.688zM87.41748 312.8813L87.49276 312.8813C 88.22134 312.8803 88.82284 313.4505 88.86047 314.178C 89.10661 318.6833 90.05953 320.9372 90.8026 321.9923L90.8026 321.9923L90.8026 302.6695C 90.80717 301.6658 91.62228 300.8546 92.6263 300.8546C 93.63024 300.8546 94.44543 301.6658 94.44992 302.6695L94.44992 302.6695L94.44992 312.013L94.44992 312.013L95.13378 312.013L95.13378 312.013L95.13378 302.6695C 95.13827 301.6658 95.95346 300.8546 96.9574 300.8546C 97.96142 300.8546 98.77654 301.6658 98.7811 302.6695L98.7811 302.6695L98.7811 321.9809C 98.8563 321.8738 98.9315 321.753 99.00906 321.6254C 99.69291 320.4563 100.4976 318.2184 100.7209 314.1711C 100.7609 313.4454 101.3617 312.8779 102.0887 312.879L102.0887 312.879L102.1662 312.879C 102.9185 312.9243 103.4924 313.5693 103.4496 314.3215C 103.1761 319.2554 102.1138 322.0356 100.942 323.665C 99.77039 325.2944 98.46417 325.6431 98.17701 325.6704C 98.05528 325.6875 97.93173 325.6875 97.81 325.6704C 97.75354 325.6811 97.69638 325.6872 97.63898 325.6887L97.63898 325.6887L91.94016 325.6887C 91.88197 325.6872 91.82409 325.6811 91.76685 325.6704C 91.64591 325.6875 91.52315 325.6875 91.40213 325.6704C 91.11268 325.6431 89.80646 325.2967 88.63709 323.665C 87.46764 322.0333 86.40079 319.2598 86.12953 314.3215C 86.08811 313.5685 86.66433 312.9241 87.41748 312.8813z" stroke="none" fill="#FBC02D" fill-rule="evenodd" /><path transform="matrix(1 0 0 -1 0 512)" d="M117.7896 333.688C 116.3601 333.6944 115.0365 332.9357 114.3199 331.6991C 113.6033 330.4626 113.6033 328.9373 114.3199 327.7007C 115.0365 326.4642 116.3601 325.7055 117.7896 325.7119C 119.2191 325.7055 120.5427 326.4642 121.2592 327.7007C 121.9758 328.9373 121.9758 330.4626 121.2592 331.6991C 120.5427 332.9357 119.2191 333.6944 117.7896 333.688zM110.4175 311.8813L110.4928 311.8813C 111.2213 311.8803 111.8228 312.4505 111.8605 313.178C 112.1066 317.6833 113.0595 319.9372 113.8026 320.9923L113.8026 320.9923L113.8026 301.6695C 113.8072 300.6658 114.6223 299.8546 115.6263 299.8546C 116.6302 299.8546 117.4454 300.6658 117.4499 301.6695L117.4499 301.6695L117.4499 311.013L117.4499 311.013L118.1338 311.013L118.1338 311.013L118.1338 301.6695C 118.1383 300.6658 118.9535 299.8546 119.9574 299.8546C 120.9614 299.8546 121.7765 300.6658 121.7811 301.6695L121.7811 301.6695L121.7811 320.9809C 121.8563 320.8738 121.9315 320.753 122.0091 320.6254C 122.6929 319.4563 123.4976 317.2184 123.7209 313.1711C 123.7609 312.4454 124.3617 311.8779 125.0887 311.879L125.0887 311.879L125.1662 311.879C 125.9185 311.9243 126.4924 312.5693 126.4496 313.3215C 126.1761 318.2554 125.1138 321.0356 123.942 322.665C 122.7704 324.2944 121.4642 324.6431 121.177 324.6704C 121.0553 324.6875 120.9317 324.6875 120.81 324.6704C 120.7535 324.6811 120.6964 324.6873 120.639 324.6887L120.639 324.6887L114.9402 324.6887C 114.882 324.6872 114.8241 324.6811 114.7668 324.6704C 114.6459 324.6875 114.5231 324.6875 114.4021 324.6704C 114.1127 324.6431 112.8065 324.2967 111.6371 322.665C 110.4676 321.0333 109.4008 318.2599 109.1295 313.3215C 109.0881 312.5685 109.6643 311.9241 110.4175 311.8813z" stroke="none" fill="#FBC02D" fill-rule="evenodd" /><path transform="matrix(1 0 0 -1 0 512)" d="M140.7896 333.688C 139.3601 333.6944 138.0365 332.9357 137.3199 331.6991C 136.6033 330.4626 136.6033 328.9373 137.3199 327.7007C 138.0365 326.4642 139.3601 325.7055 140.7896 325.7119C 142.2191 325.7055 143.5427 326.4642 144.2592 327.7007C 144.9758 328.9373 144.9758 330.4626 144.2592 331.6991C 143.5427 332.9357 142.2191 333.6944 140.7896 333.688zM133.4175 311.8813L133.4928 311.8813C 134.2213 311.8803 134.8228 312.4505 134.8605 313.178C 135.1066 317.6833 136.0595 319.9372 136.8026 320.9923L136.8026 320.9923L136.8026 301.6695C 136.8072 300.6658 137.6223 299.8546 138.6263 299.8546C 139.6302 299.8546 140.4454 300.6658 140.4499 301.6695L140.4499 301.6695L140.4499 311.013L140.4499 311.013L141.1338 311.013L141.1338 311.013L141.1338 301.6695C 141.1383 300.6658 141.9535 299.8546 142.9574 299.8546C 143.9614 299.8546 144.7765 300.6658 144.7811 301.6695L144.7811 301.6695L144.7811 320.9809C 144.8563 320.8738 144.9315 320.753 145.0091 320.6254C 145.6929 319.4563 146.4976 317.2184 146.7209 313.1711C 146.7609 312.4454 147.3617 311.8779 148.0887 311.879L148.0887 311.879L148.1662 311.879C 148.9185 311.9243 149.4924 312.5693 149.4496 313.3215C 149.1761 318.2554 148.1138 321.0356 146.942 322.665C 145.7704 324.2944 144.4642 324.6431 144.177 324.6704C 144.0553 324.6875 143.9317 324.6875 143.81 324.6704C 143.7535 324.6811 143.6964 324.6873 143.639 324.6887L143.639 324.6887L137.9402 324.6887C 137.882 324.6872 137.8241 324.6811 137.7668 324.6704C 137.6459 324.6875 137.5231 324.6875 137.4021 324.6704C 137.1127 324.6431 135.8065 324.2967 134.6371 322.665C 133.4676 321.0333 132.4008 318.2599 132.1295 313.3215C 132.0881 312.5685 132.6643 311.9241 133.4175 311.8813z" stroke="none" fill="#FBC02D" fill-rule="evenodd" /><path transform="matrix(1 0 0 -1 0 512)" d="M164.7896 334.688C 163.3601 334.6944 162.0365 333.9357 161.3199 332.6991C 160.6033 331.4626 160.6033 329.9372 161.3199 328.7007C 162.0365 327.4642 163.3601 326.7055 164.7896 326.7119C 166.2191 326.7055 167.5427 327.4642 168.2592 328.7007C 168.9758 329.9372 168.9758 331.4626 168.2592 332.6991C 167.5427 333.9357 166.2191 334.6944 164.7896 334.688zM157.4175 312.8813L157.4928 312.8813C 158.2213 312.8803 158.8228 313.4505 158.8605 314.178C 159.1066 318.6833 160.0595 320.9372 160.8026 321.9923L160.8026 321.9923L160.8026 302.6695C 160.8072 301.6658 161.6223 300.8546 162.6263 300.8546C 163.6302 300.8546 164.4454 301.6658 164.4499 302.6695L164.4499 302.6695L164.4499 312.013L164.4499 312.013L165.1338 312.013L165.1338 312.013L165.1338 302.6695C 165.1383 301.6658 165.9535 300.8546 166.9574 300.8546C 167.9614 300.8546 168.7765 301.6658 168.7811 302.6695L168.7811 302.6695L168.7811 321.9809C 168.8563 321.8738 168.9315 321.753 169.0091 321.6254C 169.6929 320.4563 170.4976 318.2184 170.7209 314.1711C 170.7609 313.4454 171.3617 312.8779 172.0887 312.879L172.0887 312.879L172.1662 312.879C 172.9185 312.9243 173.4924 313.5693 173.4496 314.3215C 173.1761 319.2554 172.1138 322.0356 170.942 323.665C 169.7704 325.2944 168.4642 325.6431 168.177 325.6704C 168.0553 325.6875 167.9317 325.6875 167.81 325.6704C 167.7535 325.6811 167.6964 325.6872 167.639 325.6887L167.639 325.6887L161.9402 325.6887C 161.882 325.6872 161.8241 325.6811 161.7668 325.6704C 161.6459 325.6875 161.5231 325.6875 161.4021 325.6704C 161.1127 325.6431 159.8065 325.2967 158.6371 323.665C 157.4676 322.0333 156.4008 319.2598 156.1295 314.3215C 156.0881 313.5685 156.6643 312.9241 157.4175 312.8813z" stroke="none" fill="#FBC02D" fill-rule="evenodd" /><path transform="matrix(1 0 0 -1 0 512)" d="M187.7896 334.688C 186.3601 334.6944 185.0364 333.9357 184.3199 332.6991C 183.6033 331.4626 183.6033 329.9372 184.3199 328.7007C 185.0364 327.4642 186.3601 326.7055 187.7896 326.7119C 189.219 326.7055 190.5427 327.4642 191.2592 328.7007C 191.9758 329.9372 191.9758 331.4626 191.2592 332.6991C 190.5427 333.9357 189.219 334.6944 187.7896 334.688zM180.4175 312.8813L180.4927 312.8813C 181.2213 312.8803 181.8228 313.4505 181.8605 314.178C 182.1066 318.6833 183.0595 320.9372 183.8026 321.9923L183.8026 321.9923L183.8026 302.6695C 183.8072 301.6658 184.6223 300.8546 185.6263 300.8546C 186.6302 300.8546 187.4454 301.6658 187.4499 302.6695L187.4499 302.6695L187.4499 312.013L187.4499 312.013L188.1338 312.013L188.1338 312.013L188.1338 302.6695C 188.1383 301.6658 188.9535 300.8546 189.9574 300.8546C 190.9614 300.8546 191.7765 301.6658 191.7811 302.6695L191.7811 302.6695L191.7811 321.9809C 191.8563 321.8738 191.9315 321.753 192.009 321.6254C 192.6929 320.4563 193.4975 318.2184 193.7209 314.1711C 193.7609 313.4454 194.3617 312.8779 195.0887 312.879L195.0887 312.879L195.1662 312.879C 195.9185 312.9243 196.4924 313.5693 196.4496 314.3215C 196.1761 319.2554 195.1138 322.0356 193.942 323.665C 192.7704 325.2944 191.4642 325.6431 191.177 325.6704C 191.0553 325.6875 190.9317 325.6875 190.81 325.6704C 190.7535 325.6811 190.6964 325.6872 190.639 325.6887L190.639 325.6887L184.9401 325.6887C 184.882 325.6872 184.8241 325.6811 184.7668 325.6704C 184.6459 325.6875 184.5231 325.6875 184.4021 325.6704C 184.1127 325.6431 182.8064 325.2967 181.6371 323.665C 180.4676 322.0333 179.4008 319.2598 179.1295 314.3215C 179.0881 313.5685 179.6643 312.9241 180.4175 312.8813z" stroke="none" fill="#FBC02D" fill-rule="evenodd" /><path transform="matrix(1 0 0 -1 0 512)" d="M210.7896 333.688C 209.3601 333.6944 208.0365 332.9357 207.3199 331.6991C 206.6033 330.4626 206.6033 328.9373 207.3199 327.7007C 208.0365 326.4642 209.3601 325.7055 210.7896 325.7119C 212.2191 325.7055 213.5427 326.4642 214.2592 327.7007C 214.9758 328.9373 214.9758 330.4626 214.2592 331.6991C 213.5427 332.9357 212.2191 333.6944 210.7896 333.688zM203.4175 311.8813L203.4928 311.8813C 204.2213 311.8803 204.8228 312.4505 204.8605 313.178C 205.1066 317.6833 206.0595 319.9372 206.8026 320.9923L206.8026 320.9923L206.8026 301.6695C 206.8072 300.6658 207.6223 299.8546 208.6263 299.8546C 209.6302 299.8546 210.4454 300.6658 210.4499 301.6695L210.4499 301.6695L210.4499 311.013L210.4499 311.013L211.1338 311.013L211.1338 311.013L211.1338 301.6695C 211.1383 300.6658 211.9535 299.8546 212.9574 299.8546C 213.9614 299.8546 214.7765 300.6658 214.7811 301.6695L214.7811 301.6695L214.7811 320.9809C 214.8563 320.8738 214.9315 320.753 215.0091 320.6254C 215.6929 319.4563 216.4976 317.2184 216.7209 313.1711C 216.7609 312.4454 217.3617 311.8779 218.0887 311.879L218.0887 311.879L218.1662 311.879C 218.9185 311.9243 219.4924 312.5693 219.4496 313.3215C 219.1761 318.2554 218.1138 321.0356 216.942 322.665C 215.7704 324.2944 214.4642 324.6431 214.177 324.6704C 214.0553 324.6875 213.9317 324.6875 213.81 324.6704C 213.7535 324.6811 213.6964 324.6873 213.639 324.6887L213.639 324.6887L207.9402 324.6887C 207.882 324.6872 207.8241 324.6811 207.7669 324.6704C 207.6459 324.6875 207.5231 324.6875 207.4021 324.6704C 207.1127 324.6431 205.8065 324.2967 204.6371 322.665C 203.4676 321.0333 202.4008 318.2599 202.1295 313.3215C 202.0881 312.5685 202.6643 311.9241 203.4175 311.8813z" stroke="none" fill="#FBC02D" fill-rule="evenodd" /><path transform="matrix(1 0 0 -1 0 512)" d="M233.7896 333.688C 232.3601 333.6944 231.0365 332.9357 230.3199 331.6991C 229.6033 330.4626 229.6033 328.9373 230.3199 327.7007C 231.0365 326.4642 232.3601 325.7055 233.7896 325.7119C 235.219 325.7055 236.5427 326.4642 237.2592 327.7007C 237.9758 328.9373 237.9758 330.4626 237.2592 331.6991C 236.5427 332.9357 235.219 333.6944 233.7896 333.688zM226.4175 311.8813L226.4928 311.8813C 227.2213 311.8803 227.8228 312.4505 227.8605 313.178C 228.1066 317.6833 229.0595 319.9372 229.8026 320.9923L229.8026 320.9923L229.8026 301.6695C 229.8072 300.6658 230.6223 299.8546 231.6263 299.8546C 232.6302 299.8546 233.4454 300.6658 233.4499 301.6695L233.4499 301.6695L233.4499 311.013L233.4499 311.013L234.1338 311.013L234.1338 311.013L234.1338 301.6695C 234.1383 300.6658 234.9535 299.8546 235.9574 299.8546C 236.9614 299.8546 237.7765 300.6658 237.7811 301.6695L237.7811 301.6695L237.7811 320.9809C 237.8563 320.8738 237.9315 320.753 238.009 320.6254C 238.6929 319.4563 239.4976 317.2184 239.7209 313.1711C 239.7609 312.4454 240.3617 311.8779 241.0887 311.879L241.0887 311.879L241.1662 311.879C 241.9185 311.9243 242.4924 312.5693 242.4496 313.3215C 242.1761 318.2554 241.1138 321.0356 239.942 322.665C 238.7704 324.2944 237.4642 324.6431 237.177 324.6704C 237.0553 324.6875 236.9317 324.6875 236.81 324.6704C 236.7535 324.6811 236.6964 324.6873 236.639 324.6887L236.639 324.6887L230.9402 324.6887C 230.882 324.6872 230.8241 324.6811 230.7668 324.6704C 230.6459 324.6875 230.5231 324.6875 230.4021 324.6704C 230.1127 324.6431 228.8065 324.2967 227.6371 322.665C 226.4676 321.0333 225.4008 318.2599 225.1295 313.3215C 225.0881 312.5685 225.6643 311.9241 226.4175 311.8813z" stroke="none" fill="#FBC02D" fill-rule="evenodd" /><path transform="matrix(1 0 0 -1 0 512)" d="M255.7896 333.688C 254.3601 333.6944 253.0365 332.9357 252.3199 331.6991C 251.6033 330.4626 251.6033 328.9373 252.3199 327.7007C 253.0365 326.4642 254.3601 325.7055 255.7896 325.7119C 257.2191 325.7055 258.5427 326.4642 259.2592 327.7007C 259.9758 328.9373 259.9758 330.4626 259.2592 331.6991C 258.5427 332.9357 257.2191 333.6944 255.7896 333.688zM248.4175 311.8813L248.4928 311.8813C 249.2213 311.8803 249.8228 312.4505 249.8605 313.178C 250.1066 317.6833 251.0595 319.9372 251.8026 320.9923L251.8026 320.9923L251.8026 301.6695C 251.8072 300.6658 252.6223 299.8546 253.6263 299.8546C 254.6302 299.8546 255.4454 300.6658 255.4499 301.6695L255.4499 301.6695L255.4499 311.013L255.4499 311.013L256.1338 311.013L256.1338 311.013L256.1338 301.6695C 256.1383 300.6658 256.9535 299.8546 257.9574 299.8546C 258.9614 299.8546 259.7765 300.6658 259.7811 301.6695L259.7811 301.6695L259.7811 320.9809C 259.8563 320.8738 259.9315 320.753 260.0091 320.6254C 260.6929 319.4563 261.4976 317.2184 261.7209 313.1711C 261.7609 312.4454 262.3617 311.8779 263.0887 311.879L263.0887 311.879L263.1662 311.879C 263.9185 311.9243 264.4924 312.5693 264.4496 313.3215C 264.1761 318.2554 263.1138 321.0356 261.942 322.665C 260.7704 324.2944 259.4642 324.6431 259.177 324.6704C 259.0553 324.6875 258.9317 324.6875 258.81 324.6704C 258.7535 324.6811 258.6964 324.6873 258.639 324.6887L258.639 324.6887L252.9402 324.6887C 252.882 324.6872 252.8241 324.6811 252.7668 324.6704C 252.6459 324.6875 252.5231 324.6875 252.4021 324.6704C 252.1127 324.6431 250.8065 324.2967 249.6371 322.665C 248.4676 321.0333 247.4008 318.2599 247.1295 313.3215C 247.0881 312.5685 247.6643 311.9241 248.4175 311.8813z" stroke="none" fill="#FBC02D" fill-rule="evenodd" /><path transform="matrix(1 0 0 -1 0 512)" d="M278.7896 333.688C 277.3601 333.6944 276.0364 332.9357 275.3199 331.6991C 274.6033 330.4626 274.6033 328.9373 275.3199 327.7007C 276.0364 326.4642 277.3601 325.7055 278.7896 325.7119C 280.219 325.7055 281.5427 326.4642 282.2592 327.7007C 282.9758 328.9373 282.9758 330.4626 282.2592 331.6991C 281.5427 332.9357 280.219 333.6944 278.7896 333.688zM271.4175 311.8813L271.4927 311.8813C 272.2213 311.8803 272.8228 312.4505 272.8605 313.178C 273.1066 317.6833 274.0595 319.9372 274.8026 320.9923L274.8026 320.9923L274.8026 301.6695C 274.8071 300.6658 275.6223 299.8546 276.6263 299.8546C 277.6302 299.8546 278.4454 300.6658 278.4499 301.6695L278.4499 301.6695L278.4499 311.013L278.4499 311.013L279.1338 311.013L279.1338 311.013L279.1338 301.6695C 279.1382 300.6658 279.9534 299.8546 280.9574 299.8546C 281.9614 299.8546 282.7765 300.6658 282.7811 301.6695L282.7811 301.6695L282.7811 320.9809C 282.8563 320.8738 282.9315 320.753 283.009 320.6254C 283.6929 319.4563 284.4975 317.2184 284.7209 313.1711C 284.7609 312.4454 285.3617 311.8779 286.0886 311.879L286.0886 311.879L286.1662 311.879C 286.9185 311.9243 287.4923 312.5693 287.4496 313.3215C 287.176 318.2554 286.1138 321.0356 284.942 322.665C 283.7704 324.2944 282.4642 324.6431 282.177 324.6704C 282.0553 324.6875 281.9317 324.6875 281.81 324.6704C 281.7535 324.6811 281.6964 324.6873 281.639 324.6887L281.639 324.6887L275.9401 324.6887C 275.8819 324.6872 275.8241 324.6811 275.7668 324.6704C 275.6459 324.6875 275.5231 324.6875 275.4021 324.6704C 275.1127 324.6431 273.8064 324.2967 272.6371 322.665C 271.4676 321.0333 270.4008 318.2599 270.1295 313.3215C 270.0881 312.5685 270.6643 311.9241 271.4175 311.8813z" stroke="none" fill="#FBC02D" fill-rule="evenodd" /><path transform="matrix(1 0 0 -1 0 512)" d="M71.7896 262.688C 70.36008 262.6944 69.03646 261.9357 68.31992 260.6991C 67.60331 259.4626 67.60331 257.9372 68.31992 256.7007C 69.03646 255.4642 70.36008 254.7055 71.7896 254.7119C 73.21905 254.7055 74.54268 255.4642 75.25921 256.7007C 75.97583 257.9372 75.97583 259.4626 75.25921 260.6991C 74.54268 261.9357 73.21905 262.6944 71.7896 262.688zM64.41748 240.8813L64.49275 240.8813C 65.22134 240.8803 65.82283 241.4505 65.86047 242.178C 66.10661 246.6833 67.05953 248.9372 67.8026 249.9923L67.8026 249.9923L67.8026 230.6695C 67.80716 229.6658 68.62228 228.8546 69.6263 228.8546C 70.63023 228.8546 71.44543 229.6658 71.44992 230.6695L71.44992 230.6695L71.44992 240.013L71.44992 240.013L72.13378 240.013L72.13378 240.013L72.13378 230.6695C 72.13827 229.6658 72.95346 228.8546 73.9574 228.8546C 74.96142 228.8546 75.77653 229.6658 75.7811 230.6695L75.7811 230.6695L75.7811 249.9809C 75.8563 249.8738 75.93149 249.753 76.00905 249.6254C 76.69291 248.4563 77.49756 246.2184 77.72094 242.1711C 77.76094 241.4454 78.36173 240.8779 79.08866 240.879L79.08866 240.879L79.16622 240.879C 79.9185 240.9243 80.49236 241.5693 80.4496 242.3215C 80.17606 247.2554 79.11378 250.0356 77.94205 251.665C 76.77039 253.2944 75.46417 253.6431 75.17701 253.6704C 75.05527 253.6875 74.93173 253.6875 74.81 253.6704C 74.75354 253.6811 74.69638 253.6872 74.63897 253.6887L74.63897 253.6887L68.94016 253.6887C 68.88197 253.6872 68.82409 253.6811 68.76685 253.6704C 68.6459 253.6875 68.52315 253.6875 68.40212 253.6704C 68.11268 253.6431 66.80646 253.2967 65.63709 251.665C 64.46764 250.0333 63.40079 247.2598 63.12953 242.3215C 63.08811 241.5685 63.66433 240.9241 64.41748 240.8813z" stroke="none" fill="#FBC02D" fill-rule="evenodd" /><path transform="matrix(1 0 0 -1 0 512)" d="M94.78961 262.688C 93.36008 262.6944 92.03646 261.9357 91.31992 260.6991C 90.60331 259.4626 90.60331 257.9372 91.31992 256.7007C 92.03646 255.4642 93.36008 254.7055 94.78961 254.7119C 96.21906 254.7055 97.54268 255.4642 98.25921 256.7007C 98.97583 257.9372 98.97583 259.4626 98.25921 260.6991C 97.54268 261.9357 96.21906 262.6944 94.78961 262.688zM87.41748 240.8813L87.49276 240.8813C 88.22134 240.8803 88.82284 241.4505 88.86047 242.178C 89.10661 246.6833 90.05953 248.9372 90.8026 249.9923L90.8026 249.9923L90.8026 230.6695C 90.80717 229.6658 91.62228 228.8546 92.6263 228.8546C 93.63024 228.8546 94.44543 229.6658 94.44992 230.6695L94.44992 230.6695L94.44992 240.013L94.44992 240.013L95.13378 240.013L95.13378 240.013L95.13378 230.6695C 95.13827 229.6658 95.95346 228.8546 96.9574 228.8546C 97.96142 228.8546 98.77654 229.6658 98.7811 230.6695L98.7811 230.6695L98.7811 249.9809C 98.8563 249.8738 98.9315 249.753 99.00906 249.6254C 99.69291 248.4563 100.4976 246.2184 100.7209 242.1711C 100.7609 241.4454 101.3617 240.8779 102.0887 240.879L102.0887 240.879L102.1662 240.879C 102.9185 240.9243 103.4924 241.5693 103.4496 242.3215C 103.1761 247.2554 102.1138 250.0356 100.942 251.665C 99.77039 253.2944 98.46417 253.6431 98.17701 253.6704C 98.05528 253.6875 97.93173 253.6875 97.81 253.6704C 97.75354 253.6811 97.69638 253.6872 97.63898 253.6887L97.63898 253.6887L91.94016 253.6887C 91.88197 253.6872 91.82409 253.6811 91.76685 253.6704C 91.64591 253.6875 91.52315 253.6875 91.40213 253.6704C 91.11268 253.6431 89.80646 253.2967 88.63709 251.665C 87.46764 250.0333 86.40079 247.2598 86.12953 242.3215C 86.08811 241.5685 86.66433 240.9241 87.41748 240.8813z" stroke="none" fill="#FBC02D" fill-rule="evenodd" /><path transform="matrix(1 0 0 -1 0 512)" d="M117.7896 261.688C 116.3601 261.6944 115.0365 260.9357 114.3199 259.6991C 113.6033 258.4626 113.6033 256.9373 114.3199 255.7007C 115.0365 254.4642 116.3601 253.7055 117.7896 253.7119C 119.2191 253.7055 120.5427 254.4642 121.2592 255.7007C 121.9758 256.9373 121.9758 258.4626 121.2592 259.6991C 120.5427 260.9357 119.2191 261.6944 117.7896 261.688zM110.4175 239.8813L110.4928 239.8813C 111.2213 239.8803 111.8228 240.4505 111.8605 241.178C 112.1066 245.6833 113.0595 247.9372 113.8026 248.9923L113.8026 248.9923L113.8026 229.6695C 113.8072 228.6658 114.6223 227.8546 115.6263 227.8546C 116.6302 227.8546 117.4454 228.6658 117.4499 229.6695L117.4499 229.6695L117.4499 239.013L117.4499 239.013L118.1338 239.013L118.1338 239.013L118.1338 229.6695C 118.1383 228.6658 118.9535 227.8546 119.9574 227.8546C 120.9614 227.8546 121.7765 228.6658 121.7811 229.6695L121.7811 229.6695L121.7811 248.9809C 121.8563 248.8738 121.9315 248.753 122.0091 248.6254C 122.6929 247.4563 123.4976 245.2184 123.7209 241.1711C 123.7609 240.4454 124.3617 239.8779 125.0887 239.879L125.0887 239.879L125.1662 239.879C 125.9185 239.9243 126.4924 240.5693 126.4496 241.3215C 126.1761 246.2554 125.1138 249.0356 123.942 250.665C 122.7704 252.2944 121.4642 252.6431 121.177 252.6704C 121.0553 252.6875 120.9317 252.6875 120.81 252.6704C 120.7535 252.6811 120.6964 252.6873 120.639 252.6887L120.639 252.6887L114.9402 252.6887C 114.882 252.6872 114.8241 252.6811 114.7668 252.6704C 114.6459 252.6875 114.5231 252.6875 114.4021 252.6704C 114.1127 252.6431 112.8065 252.2967 111.6371 250.665C 110.4676 249.0333 109.4008 246.2599 109.1295 241.3215C 109.0881 240.5685 109.6643 239.9241 110.4175 239.8813z" stroke="none" fill="#FBC02D" fill-rule="evenodd" /><path transform="matrix(1 0 0 -1 0 512)" d="M140.7896 261.688C 139.3601 261.6944 138.0365 260.9357 137.3199 259.6991C 136.6033 258.4626 136.6033 256.9373 137.3199 255.7007C 138.0365 254.4642 139.3601 253.7055 140.7896 253.7119C 142.2191 253.7055 143.5427 254.4642 144.2592 255.7007C 144.9758 256.9373 144.9758 258.4626 144.2592 259.6991C 143.5427 260.9357 142.2191 261.6944 140.7896 261.688zM133.4175 239.8813L133.4928 239.8813C 134.2213 239.8803 134.8228 240.4505 134.8605 241.178C 135.1066 245.6833 136.0595 247.9372 136.8026 248.9923L136.8026 248.9923L136.8026 229.6695C 136.8072 228.6658 137.6223 227.8546 138.6263 227.8546C 139.6302 227.8546 140.4454 228.6658 140.4499 229.6695L140.4499 229.6695L140.4499 239.013L140.4499 239.013L141.1338 239.013L141.1338 239.013L141.1338 229.6695C 141.1383 228.6658 141.9535 227.8546 142.9574 227.8546C 143.9614 227.8546 144.7765 228.6658 144.7811 229.6695L144.7811 229.6695L144.7811 248.9809C 144.8563 248.8738 144.9315 248.753 145.0091 248.6254C 145.6929 247.4563 146.4976 245.2184 146.7209 241.1711C 146.7609 240.4454 147.3617 239.8779 148.0887 239.879L148.0887 239.879L148.1662 239.879C 148.9185 239.9243 149.4924 240.5693 149.4496 241.3215C 149.1761 246.2554 148.1138 249.0356 146.942 250.665C 145.7704 252.2944 144.4642 252.6431 144.177 252.6704C 144.0553 252.6875 143.9317 252.6875 143.81 252.6704C 143.7535 252.6811 143.6964 252.6873 143.639 252.6887L143.639 252.6887L137.9402 252.6887C 137.882 252.6872 137.8241 252.6811 137.7668 252.6704C 137.6459 252.6875 137.5231 252.6875 137.4021 252.6704C 137.1127 252.6431 135.8065 252.2967 134.6371 250.665C 133.4676 249.0333 132.4008 246.2599 132.1295 241.3215C 132.0881 240.5685 132.6643 239.9241 133.4175 239.8813z" stroke="none" fill="#FBC02D" fill-rule="evenodd" /><path transform="matrix(1 0 0 -1 0 512)" d="M164.7896 262.688C 163.3601 262.6944 162.0365 261.9357 161.3199 260.6991C 160.6033 259.4626 160.6033 257.9372 161.3199 256.7007C 162.0365 255.4642 163.3601 254.7055 164.7896 254.7119C 166.2191 254.7055 167.5427 255.4642 168.2592 256.7007C 168.9758 257.9372 168.9758 259.4626 168.2592 260.6991C 167.5427 261.9357 166.2191 262.6944 164.7896 262.688zM157.4175 240.8813L157.4928 240.8813C 158.2213 240.8803 158.8228 241.4505 158.8605 242.178C 159.1066 246.6833 160.0595 248.9372 160.8026 249.9923L160.8026 249.9923L160.8026 230.6695C 160.8072 229.6658 161.6223 228.8546 162.6263 228.8546C 163.6302 228.8546 164.4454 229.6658 164.4499 230.6695L164.4499 230.6695L164.4499 240.013L164.4499 240.013L165.1338 240.013L165.1338 240.013L165.1338 230.6695C 165.1383 229.6658 165.9535 228.8546 166.9574 228.8546C 167.9614 228.8546 168.7765 229.6658 168.7811 230.6695L168.7811 230.6695L168.7811 249.9809C 168.8563 249.8738 168.9315 249.753 169.0091 249.6254C 169.6929 248.4563 170.4976 246.2184 170.7209 242.1711C 170.7609 241.4454 171.3617 240.8779 172.0887 240.879L172.0887 240.879L172.1662 240.879C 172.9185 240.9243 173.4924 241.5693 173.4496 242.3215C 173.1761 247.2554 172.1138 250.0356 170.942 251.665C 169.7704 253.2944 168.4642 253.6431 168.177 253.6704C 168.0553 253.6875 167.9317 253.6875 167.81 253.6704C 167.7535 253.6811 167.6964 253.6872 167.639 253.6887L167.639 253.6887L161.9402 253.6887C 161.882 253.6872 161.8241 253.6811 161.7668 253.6704C 161.6459 253.6875 161.5231 253.6875 161.4021 253.6704C 161.1127 253.6431 159.8065 253.2967 158.6371 251.665C 157.4676 250.0333 156.4008 247.2598 156.1295 242.3215C 156.0881 241.5685 156.6643 240.9241 157.4175 240.8813z" stroke="none" fill="#FBC02D" fill-rule="evenodd" /><path transform="matrix(1 0 0 -1 0 512)" d="M187.7896 262.688C 186.3601 262.6944 185.0364 261.9357 184.3199 260.6991C 183.6033 259.4626 183.6033 257.9372 184.3199 256.7007C 185.0364 255.4642 186.3601 254.7055 187.7896 254.7119C 189.219 254.7055 190.5427 255.4642 191.2592 256.7007C 191.9758 257.9372 191.9758 259.4626 191.2592 260.6991C 190.5427 261.9357 189.219 262.6944 187.7896 262.688zM180.4175 240.8813L180.4927 240.8813C 181.2213 240.8803 181.8228 241.4505 181.8605 242.178C 182.1066 246.6833 183.0595 248.9372 183.8026 249.9923L183.8026 249.9923L183.8026 230.6695C 183.8072 229.6658 184.6223 228.8546 185.6263 228.8546C 186.6302 228.8546 187.4454 229.6658 187.4499 230.6695L187.4499 230.6695L187.4499 240.013L187.4499 240.013L188.1338 240.013L188.1338 240.013L188.1338 230.6695C 188.1383 229.6658 188.9535 228.8546 189.9574 228.8546C 190.9614 228.8546 191.7765 229.6658 191.7811 230.6695L191.7811 230.6695L191.7811 249.9809C 191.8563 249.8738 191.9315 249.753 192.009 249.6254C 192.6929 248.4563 193.4975 246.2184 193.7209 242.1711C 193.7609 241.4454 194.3617 240.8779 195.0887 240.879L195.0887 240.879L195.1662 240.879C 195.9185 240.9243 196.4924 241.5693 196.4496 242.3215C 196.1761 247.2554 195.1138 250.0356 193.942 251.665C 192.7704 253.2944 191.4642 253.6431 191.177 253.6704C 191.0553 253.6875 190.9317 253.6875 190.81 253.6704C 190.7535 253.6811 190.6964 253.6872 190.639 253.6887L190.639 253.6887L184.9401 253.6887C 184.882 253.6872 184.8241 253.6811 184.7668 253.6704C 184.6459 253.6875 184.5231 253.6875 184.4021 253.6704C 184.1127 253.6431 182.8064 253.2967 181.6371 251.665C 180.4676 250.0333 179.4008 247.2598 179.1295 242.3215C 179.0881 241.5685 179.6643 240.9241 180.4175 240.8813z" stroke="none" fill="#FBC02D" fill-rule="evenodd" /><path transform="matrix(1 0 0 -1 0 512)" d="M210.7896 261.688C 209.3601 261.6944 208.0365 260.9357 207.3199 259.6991C 206.6033 258.4626 206.6033 256.9373 207.3199 255.7007C 208.0365 254.4642 209.3601 253.7055 210.7896 253.7119C 212.2191 253.7055 213.5427 254.4642 214.2592 255.7007C 214.9758 256.9373 214.9758 258.4626 214.2592 259.6991C 213.5427 260.9357 212.2191 261.6944 210.7896 261.688zM203.4175 239.8813L203.4928 239.8813C 204.2213 239.8803 204.8228 240.4505 204.8605 241.178C 205.1066 245.6833 206.0595 247.9372 206.8026 248.9923L206.8026 248.9923L206.8026 229.6695C 206.8072 228.6658 207.6223 227.8546 208.6263 227.8546C 209.6302 227.8546 210.4454 228.6658 210.4499 229.6695L210.4499 229.6695L210.4499 239.013L210.4499 239.013L211.1338 239.013L211.1338 239.013L211.1338 229.6695C 211.1383 228.6658 211.9535 227.8546 212.9574 227.8546C 213.9614 227.8546 214.7765 228.6658 214.7811 229.6695L214.7811 229.6695L214.7811 248.9809C 214.8563 248.8738 214.9315 248.753 215.0091 248.6254C 215.6929 247.4563 216.4976 245.2184 216.7209 241.1711C 216.7609 240.4454 217.3617 239.8779 218.0887 239.879L218.0887 239.879L218.1662 239.879C 218.9185 239.9243 219.4924 240.5693 219.4496 241.3215C 219.1761 246.2554 218.1138 249.0356 216.942 250.665C 215.7704 252.2944 214.4642 252.6431 214.177 252.6704C 214.0553 252.6875 213.9317 252.6875 213.81 252.6704C 213.7535 252.6811 213.6964 252.6873 213.639 252.6887L213.639 252.6887L207.9402 252.6887C 207.882 252.6872 207.8241 252.6811 207.7669 252.6704C 207.6459 252.6875 207.5231 252.6875 207.4021 252.6704C 207.1127 252.6431 205.8065 252.2967 204.6371 250.665C 203.4676 249.0333 202.4008 246.2599 202.1295 241.3215C 202.0881 240.5685 202.6643 239.9241 203.4175 239.8813z" stroke="none" fill="#FBC02D" fill-rule="evenodd" /><path transform="matrix(1 0 0 -1 0 512)" d="M233.7896 261.688C 232.3601 261.6944 231.0365 260.9357 230.3199 259.6991C 229.6033 258.4626 229.6033 256.9373 230.3199 255.7007C 231.0365 254.4642 232.3601 253.7055 233.7896 253.7119C 235.219 253.7055 236.5427 254.4642 237.2592 255.7007C 237.9758 256.9373 237.9758 258.4626 237.2592 259.6991C 236.5427 260.9357 235.219 261.6944 233.7896 261.688zM226.4175 239.8813L226.4928 239.8813C 227.2213 239.8803 227.8228 240.4505 227.8605 241.178C 228.1066 245.6833 229.0595 247.9372 229.8026 248.9923L229.8026 248.9923L229.8026 229.6695C 229.8072 228.6658 230.6223 227.8546 231.6263 227.8546C 232.6302 227.8546 233.4454 228.6658 233.4499 229.6695L233.4499 229.6695L233.4499 239.013L233.4499 239.013L234.1338 239.013L234.1338 239.013L234.1338 229.6695C 234.1383 228.6658 234.9535 227.8546 235.9574 227.8546C 236.9614 227.8546 237.7765 228.6658 237.7811 229.6695L237.7811 229.6695L237.7811 248.9809C 237.8563 248.8738 237.9315 248.753 238.009 248.6254C 238.6929 247.4563 239.4976 245.2184 239.7209 241.1711C 239.7609 240.4454 240.3617 239.8779 241.0887 239.879L241.0887 239.879L241.1662 239.879C 241.9185 239.9243 242.4924 240.5693 242.4496 241.3215C 242.1761 246.2554 241.1138 249.0356 239.942 250.665C 238.7704 252.2944 237.4642 252.6431 237.177 252.6704C 237.0553 252.6875 236.9317 252.6875 236.81 252.6704C 236.7535 252.6811 236.6964 252.6873 236.639 252.6887L236.639 252.6887L230.9402 252.6887C 230.882 252.6872 230.8241 252.6811 230.7668 252.6704C 230.6459 252.6875 230.5231 252.6875 230.4021 252.6704C 230.1127 252.6431 228.8065 252.2967 227.6371 250.665C 226.4676 249.0333 225.4008 246.2599 225.1295 241.3215C 225.0881 240.5685 225.6643 239.9241 226.4175 239.8813z" stroke="none" fill="#FBC02D" fill-rule="evenodd" /><path transform="matrix(1 0 0 -1 0 512)" d="M255.7896 261.688C 254.3601 261.6944 253.0365 260.9357 252.3199 259.6991C 251.6033 258.4626 251.6033 256.9373 252.3199 255.7007C 253.0365 254.4642 254.3601 253.7055 255.7896 253.7119C 257.2191 253.7055 258.5427 254.4642 259.2592 255.7007C 259.9758 256.9373 259.9758 258.4626 259.2592 259.6991C 258.5427 260.9357 257.2191 261.6944 255.7896 261.688zM248.4175 239.8813L248.4928 239.8813C 249.2213 239.8803 249.8228 240.4505 249.8605 241.178C 250.1066 245.6833 251.0595 247.9372 251.8026 248.9923L251.8026 248.9923L251.8026 229.6695C 251.8072 228.6658 252.6223 227.8546 253.6263 227.8546C 254.6302 227.8546 255.4454 228.6658 255.4499 229.6695L255.4499 229.6695L255.4499 239.013L255.4499 239.013L256.1338 239.013L256.1338 239.013L256.1338 229.6695C 256.1383 228.6658 256.9535 227.8546 257.9574 227.8546C 258.9614 227.8546 259.7765 228.6658 259.7811 229.6695L259.7811 229.6695L259.7811 248.9809C 259.8563 248.8738 259.9315 248.753 260.0091 248.6254C 260.6929 247.4563 261.4976 245.2184 261.7209 241.1711C 261.7609 240.4454 262.3617 239.8779 263.0887 239.879L263.0887 239.879L263.1662 239.879C 263.9185 239.9243 264.4924 240.5693 264.4496 241.3215C 264.1761 246.2554 263.1138 249.0356 261.942 250.665C 260.7704 252.2944 259.4642 252.6431 259.177 252.6704C 259.0553 252.6875 258.9317 252.6875 258.81 252.6704C 258.7535 252.6811 258.6964 252.6873 258.639 252.6887L258.639 252.6887L252.9402 252.6887C 252.882 252.6872 252.8241 252.6811 252.7668 252.6704C 252.6459 252.6875 252.5231 252.6875 252.4021 252.6704C 252.1127 252.6431 250.8065 252.2967 249.6371 250.665C 248.4676 249.0333 247.4008 246.2599 247.1295 241.3215C 247.0881 240.5685 247.6643 239.9241 248.4175 239.8813z" stroke="none" fill="#BCBCBC" fill-rule="evenodd" /><path transform="matrix(1 0 0 -1 0 512)" d="M278.7896 261.688C 277.3601 261.6944 276.0364 260.9357 275.3199 259.6991C 274.6033 258.4626 274.6033 256.9373 275.3199 255.7007C 276.0364 254.4642 277.3601 253.7055 278.7896 253.7119C 280.219 253.7055 281.5427 254.4642 282.2592 255.7007C 282.9758 256.9373 282.9758 258.4626 282.2592 259.6991C 281.5427 260.9357 280.219 261.6944 278.7896 261.688zM271.4175 239.8813L271.4927 239.8813C 272.2213 239.8803 272.8228 240.4505 272.8605 241.178C 273.1066 245.6833 274.0595 247.9372 274.8026 248.9923L274.8026 248.9923L274.8026 229.6695C 274.8071 228.6658 275.6223 227.8546 276.6263 227.8546C 277.6302 227.8546 278.4454 228.6658 278.4499 229.6695L278.4499 229.6695L278.4499 239.013L278.4499 239.013L279.1338 239.013L279.1338 239.013L279.1338 229.6695C 279.1382 228.6658 279.9534 227.8546 280.9574 227.8546C 281.9614 227.8546 282.7765 228.6658 282.7811 229.6695L282.7811 229.6695L282.7811 248.9809C 282.8563 248.8738 282.9315 248.753 283.009 248.6254C 283.6929 247.4563 284.4975 245.2184 284.7209 241.1711C 284.7609 240.4454 285.3617 239.8779 286.0886 239.879L286.0886 239.879L286.1662 239.879C 286.9185 239.9243 287.4923 240.5693 287.4496 241.3215C 287.176 246.2554 286.1138 249.0356 284.942 250.665C 283.7704 252.2944 282.4642 252.6431 282.177 252.6704C 282.0553 252.6875 281.9317 252.6875 281.81 252.6704C 281.7535 252.6811 281.6964 252.6873 281.639 252.6887L281.639 252.6887L275.9401 252.6887C 275.8819 252.6872 275.8241 252.6811 275.7668 252.6704C 275.6459 252.6875 275.5231 252.6875 275.4021 252.6704C 275.1127 252.6431 273.8064 252.2967 272.6371 250.665C 271.4676 249.0333 270.4008 246.2599 270.1295 241.3215C 270.0881 240.5685 270.6643 239.9241 271.4175 239.8813z" stroke="none" fill="#BCBCBC" fill-rule="evenodd" /><path transform="matrix(1 0 0 -1 0 512)" d="M70.78961 184.688C 69.36008 184.6944 68.03646 183.9357 67.31992 182.6991C 66.60331 181.4626 66.60331 179.9372 67.31992 178.7007C 68.03646 177.4642 69.36008 176.7054 70.78961 176.7119C 72.21906 176.7054 73.54268 177.4642 74.25921 178.7007C 74.97583 179.9372 74.97583 181.4626 74.25921 182.6991C 73.54268 183.9357 72.21906 184.6944 70.78961 184.688zM63.41748 162.8813L63.49276 162.8813C 64.22134 162.8802 64.82284 163.4505 64.86047 164.178C 65.10662 168.6833 66.05953 170.9372 66.8026 171.9923L66.8026 171.9923L66.8026 152.6695C 66.80717 151.6658 67.62228 150.8545 68.6263 150.8545C 69.63024 150.8545 70.44543 151.6658 70.44992 152.6695L70.44992 152.6695L70.44992 162.013L70.44992 162.013L71.13378 162.013L71.13378 162.013L71.13378 152.6695C 71.13827 151.6658 71.95347 150.8545 72.9574 150.8545C 73.96142 150.8545 74.77654 151.6658 74.7811 152.6695L74.7811 152.6695L74.7811 171.9809C 74.8563 171.8738 74.9315 171.753 75.00906 171.6254C 75.69291 170.4563 76.49756 168.2184 76.72095 164.1711C 76.76095 163.4454 77.36173 162.8779 78.08866 162.879L78.08866 162.879L78.16622 162.879C 78.9185 162.9242 79.49236 163.5693 79.44961 164.3215C 79.17606 169.2553 78.11378 172.0356 76.94205 173.665C 75.77039 175.2944 74.46417 175.6431 74.17701 175.6704C 74.05528 175.6875 73.93173 175.6875 73.81 175.6704C 73.75354 175.6811 73.69638 175.6872 73.63898 175.6887L73.63898 175.6887L67.94016 175.6887C 67.88197 175.6872 67.8241 175.6811 67.76685 175.6704C 67.64591 175.6875 67.52315 175.6875 67.40213 175.6704C 67.11268 175.6431 65.80646 175.2967 64.63709 173.665C 63.46764 172.0333 62.40079 169.2598 62.12953 164.3215C 62.08811 163.5685 62.66433 162.9241 63.41748 162.8813z" stroke="none" fill="#FBC02D" fill-rule="evenodd" /><path transform="matrix(1 0 0 -1 0 512)" d="M93.7896 184.688C 92.36007 184.6944 91.03645 183.9357 90.31992 182.6991C 89.6033 181.4626 89.6033 179.9372 90.31992 178.7007C 91.03645 177.4642 92.36007 176.7054 93.7896 176.7119C 95.21905 176.7054 96.54267 177.4642 97.25921 178.7007C 97.97582 179.9372 97.97582 181.4626 97.25921 182.6991C 96.54267 183.9357 95.21905 184.6944 93.7896 184.688zM86.41748 162.8813L86.49275 162.8813C 87.22133 162.8802 87.82283 163.4505 87.86047 164.178C 88.10661 168.6833 89.05952 170.9372 89.80259 171.9923L89.80259 171.9923L89.80259 152.6695C 89.80716 151.6658 90.62228 150.8545 91.62629 150.8545C 92.63023 150.8545 93.44543 151.6658 93.44992 152.6695L93.44992 152.6695L93.44992 162.013L93.44992 162.013L94.13378 162.013L94.13378 162.013L94.13378 152.6695C 94.13826 151.6658 94.95346 150.8545 95.9574 150.8545C 96.96141 150.8545 97.77653 151.6658 97.7811 152.6695L97.7811 152.6695L97.7811 171.9809C 97.85629 171.8738 97.93149 171.753 98.00905 171.6254C 98.69291 170.4563 99.49755 168.2184 99.72094 164.1711C 99.76094 163.4454 100.3617 162.8779 101.0887 162.879L101.0887 162.879L101.1662 162.879C 101.9185 162.9242 102.4924 163.5693 102.4496 164.3215C 102.1761 169.2553 101.1138 172.0356 99.94204 173.665C 98.77039 175.2944 97.46417 175.6431 97.177 175.6704C 97.05527 175.6875 96.93173 175.6875 96.81 175.6704C 96.75354 175.6811 96.69637 175.6872 96.63897 175.6887L96.63897 175.6887L90.94015 175.6887C 90.88196 175.6872 90.82409 175.6811 90.76685 175.6704C 90.6459 175.6875 90.52315 175.6875 90.40212 175.6704C 90.11267 175.6431 88.80645 175.2967 87.63708 173.665C 86.46763 172.0333 85.40078 169.2598 85.12952 164.3215C 85.08811 163.5685 85.66433 162.9241 86.41748 162.8813z" stroke="none" fill="#FBC02D" fill-rule="evenodd" /><path transform="matrix(1 0 0 -1 0 512)" d="M116.7896 183.688C 115.3601 183.6944 114.0365 182.9357 113.3199 181.6991C 112.6033 180.4626 112.6033 178.9373 113.3199 177.7007C 114.0365 176.4642 115.3601 175.7054 116.7896 175.7119C 118.2191 175.7054 119.5427 176.4642 120.2592 177.7007C 120.9758 178.9373 120.9758 180.4626 120.2592 181.6991C 119.5427 182.9357 118.2191 183.6944 116.7896 183.688zM109.4175 161.8813L109.4928 161.8813C 110.2213 161.8802 110.8228 162.4505 110.8605 163.178C 111.1066 167.6833 112.0595 169.9372 112.8026 170.9923L112.8026 170.9923L112.8026 151.6695C 112.8072 150.6658 113.6223 149.8545 114.6263 149.8545C 115.6302 149.8545 116.4454 150.6658 116.4499 151.6695L116.4499 151.6695L116.4499 161.013L116.4499 161.013L117.1338 161.013L117.1338 161.013L117.1338 151.6695C 117.1383 150.6658 117.9535 149.8545 118.9574 149.8545C 119.9614 149.8545 120.7765 150.6658 120.7811 151.6695L120.7811 151.6695L120.7811 170.9809C 120.8563 170.8738 120.9315 170.753 121.0091 170.6254C 121.6929 169.4563 122.4976 167.2184 122.7209 163.1711C 122.7609 162.4454 123.3617 161.8779 124.0887 161.879L124.0887 161.879L124.1662 161.879C 124.9185 161.9242 125.4924 162.5693 125.4496 163.3215C 125.1761 168.2553 124.1138 171.0356 122.942 172.665C 121.7704 174.2944 120.4642 174.6431 120.177 174.6704C 120.0553 174.6875 119.9317 174.6875 119.81 174.6704C 119.7535 174.6811 119.6964 174.6872 119.639 174.6887L119.639 174.6887L113.9402 174.6887C 113.882 174.6872 113.8241 174.6811 113.7668 174.6704C 113.6459 174.6875 113.5231 174.6875 113.4021 174.6704C 113.1127 174.6431 111.8065 174.2967 110.6371 172.665C 109.4676 171.0333 108.4008 168.2599 108.1295 163.3215C 108.0881 162.5685 108.6643 161.9241 109.4175 161.8813z" stroke="none" fill="#FBC02D" fill-rule="evenodd" /><path transform="matrix(1 0 0 -1 0 512)" d="M139.7896 183.688C 138.3601 183.6944 137.0364 182.9357 136.3199 181.6991C 135.6033 180.4626 135.6033 178.9373 136.3199 177.7007C 137.0364 176.4642 138.3601 175.7054 139.7896 175.7119C 141.219 175.7054 142.5427 176.4642 143.2592 177.7007C 143.9758 178.9373 143.9758 180.4626 143.2592 181.6991C 142.5427 182.9357 141.219 183.6944 139.7896 183.688zM132.4175 161.8813L132.4927 161.8813C 133.2213 161.8802 133.8228 162.4505 133.8605 163.178C 134.1066 167.6833 135.0595 169.9372 135.8026 170.9923L135.8026 170.9923L135.8026 151.6695C 135.8072 150.6658 136.6223 149.8545 137.6263 149.8545C 138.6302 149.8545 139.4454 150.6658 139.4499 151.6695L139.4499 151.6695L139.4499 161.013L139.4499 161.013L140.1338 161.013L140.1338 161.013L140.1338 151.6695C 140.1383 150.6658 140.9535 149.8545 141.9574 149.8545C 142.9614 149.8545 143.7765 150.6658 143.7811 151.6695L143.7811 151.6695L143.7811 170.9809C 143.8563 170.8738 143.9315 170.753 144.009 170.6254C 144.6929 169.4563 145.4976 167.2184 145.7209 163.1711C 145.7609 162.4454 146.3617 161.8779 147.0887 161.879L147.0887 161.879L147.1662 161.879C 147.9185 161.9242 148.4924 162.5693 148.4496 163.3215C 148.1761 168.2553 147.1138 171.0356 145.942 172.665C 144.7704 174.2944 143.4642 174.6431 143.177 174.6704C 143.0553 174.6875 142.9317 174.6875 142.81 174.6704C 142.7535 174.6811 142.6964 174.6872 142.639 174.6887L142.639 174.6887L136.9401 174.6887C 136.882 174.6872 136.8241 174.6811 136.7668 174.6704C 136.6459 174.6875 136.5231 174.6875 136.4021 174.6704C 136.1127 174.6431 134.8064 174.2967 133.6371 172.665C 132.4676 171.0333 131.4008 168.2599 131.1295 163.3215C 131.0881 162.5685 131.6643 161.9241 132.4175 161.8813z" stroke="none" fill="#FBC02D" fill-rule="evenodd" /><path transform="matrix(1 0 0 -1 0 512)" d="M163.7896 184.688C 162.3601 184.6944 161.0364 183.9357 160.3199 182.6991C 159.6033 181.4626 159.6033 179.9372 160.3199 178.7007C 161.0364 177.4642 162.3601 176.7054 163.7896 176.7119C 165.219 176.7054 166.5427 177.4642 167.2592 178.7007C 167.9758 179.9372 167.9758 181.4626 167.2592 182.6991C 166.5427 183.9357 165.219 184.6944 163.7896 184.688zM156.4175 162.8813L156.4927 162.8813C 157.2213 162.8802 157.8228 163.4505 157.8605 164.178C 158.1066 168.6833 159.0595 170.9372 159.8026 171.9923L159.8026 171.9923L159.8026 152.6695C 159.8072 151.6658 160.6223 150.8545 161.6263 150.8545C 162.6302 150.8545 163.4454 151.6658 163.4499 152.6695L163.4499 152.6695L163.4499 162.013L163.4499 162.013L164.1338 162.013L164.1338 162.013L164.1338 152.6695C 164.1383 151.6658 164.9535 150.8545 165.9574 150.8545C 166.9614 150.8545 167.7765 151.6658 167.7811 152.6695L167.7811 152.6695L167.7811 171.9809C 167.8563 171.8738 167.9315 171.753 168.009 171.6254C 168.6929 170.4563 169.4976 168.2184 169.7209 164.1711C 169.7609 163.4454 170.3617 162.8779 171.0887 162.879L171.0887 162.879L171.1662 162.879C 171.9185 162.9242 172.4924 163.5693 172.4496 164.3215C 172.1761 169.2553 171.1138 172.0356 169.942 173.665C 168.7704 175.2944 167.4642 175.6431 167.177 175.6704C 167.0553 175.6875 166.9317 175.6875 166.81 175.6704C 166.7535 175.6811 166.6964 175.6872 166.639 175.6887L166.639 175.6887L160.9401 175.6887C 160.882 175.6872 160.8241 175.6811 160.7668 175.6704C 160.6459 175.6875 160.5231 175.6875 160.4021 175.6704C 160.1127 175.6431 158.8064 175.2967 157.6371 173.665C 156.4676 172.0333 155.4008 169.2598 155.1295 164.3215C 155.0881 163.5685 155.6643 162.9241 156.4175 162.8813z" stroke="none" fill="#FBC02D" fill-rule="evenodd" /><path transform="matrix(1 0 0 -1 0 512)" d="M186.7896 184.688C 185.3601 184.6944 184.0365 183.9357 183.3199 182.6991C 182.6033 181.4626 182.6033 179.9372 183.3199 178.7007C 184.0365 177.4642 185.3601 176.7054 186.7896 176.7119C 188.2191 176.7054 189.5427 177.4642 190.2592 178.7007C 190.9758 179.9372 190.9758 181.4626 190.2592 182.6991C 189.5427 183.9357 188.2191 184.6944 186.7896 184.688zM179.4175 162.8813L179.4928 162.8813C 180.2213 162.8802 180.8228 163.4505 180.8605 164.178C 181.1066 168.6833 182.0595 170.9372 182.8026 171.9923L182.8026 171.9923L182.8026 152.6695C 182.8072 151.6658 183.6223 150.8545 184.6263 150.8545C 185.6302 150.8545 186.4454 151.6658 186.4499 152.6695L186.4499 152.6695L186.4499 162.013L186.4499 162.013L187.1338 162.013L187.1338 162.013L187.1338 152.6695C 187.1383 151.6658 187.9535 150.8545 188.9574 150.8545C 189.9614 150.8545 190.7765 151.6658 190.7811 152.6695L190.7811 152.6695L190.7811 171.9809C 190.8563 171.8738 190.9315 171.753 191.0091 171.6254C 191.6929 170.4563 192.4976 168.2184 192.7209 164.1711C 192.7609 163.4454 193.3617 162.8779 194.0887 162.879L194.0887 162.879L194.1662 162.879C 194.9185 162.9242 195.4924 163.5693 195.4496 164.3215C 195.1761 169.2553 194.1138 172.0356 192.942 173.665C 191.7704 175.2944 190.4642 175.6431 190.177 175.6704C 190.0553 175.6875 189.9317 175.6875 189.81 175.6704C 189.7535 175.6811 189.6964 175.6872 189.639 175.6887L189.639 175.6887L183.9402 175.6887C 183.882 175.6872 183.8241 175.6811 183.7669 175.6704C 183.6459 175.6875 183.5232 175.6875 183.4021 175.6704C 183.1127 175.6431 181.8065 175.2967 180.6371 173.665C 179.4676 172.0333 178.4008 169.2598 178.1295 164.3215C 178.0881 163.5685 178.6643 162.9241 179.4175 162.8813z" stroke="none" fill="#FBC02D" fill-rule="evenodd" /><path transform="matrix(1 0 0 -1 0 512)" d="M209.7896 183.688C 208.3601 183.6944 207.0365 182.9357 206.3199 181.6991C 205.6033 180.4626 205.6033 178.9373 206.3199 177.7007C 207.0365 176.4642 208.3601 175.7054 209.7896 175.7119C 211.2191 175.7054 212.5427 176.4642 213.2592 177.7007C 213.9758 178.9373 213.9758 180.4626 213.2592 181.6991C 212.5427 182.9357 211.2191 183.6944 209.7896 183.688zM202.4175 161.8813L202.4928 161.8813C 203.2213 161.8802 203.8228 162.4505 203.8605 163.178C 204.1066 167.6833 205.0595 169.9372 205.8026 170.9923L205.8026 170.9923L205.8026 151.6695C 205.8072 150.6658 206.6223 149.8545 207.6263 149.8545C 208.6302 149.8545 209.4454 150.6658 209.4499 151.6695L209.4499 151.6695L209.4499 161.013L209.4499 161.013L210.1338 161.013L210.1338 161.013L210.1338 151.6695C 210.1383 150.6658 210.9535 149.8545 211.9574 149.8545C 212.9614 149.8545 213.7765 150.6658 213.7811 151.6695L213.7811 151.6695L213.7811 170.9809C 213.8563 170.8738 213.9315 170.753 214.0091 170.6254C 214.6929 169.4563 215.4976 167.2184 215.7209 163.1711C 215.7609 162.4454 216.3617 161.8779 217.0887 161.879L217.0887 161.879L217.1662 161.879C 217.9185 161.9242 218.4924 162.5693 218.4496 163.3215C 218.1761 168.2553 217.1138 171.0356 215.942 172.665C 214.7704 174.2944 213.4642 174.6431 213.177 174.6704C 213.0553 174.6875 212.9317 174.6875 212.81 174.6704C 212.7535 174.6811 212.6964 174.6872 212.639 174.6887L212.639 174.6887L206.9402 174.6887C 206.882 174.6872 206.8241 174.6811 206.7668 174.6704C 206.6459 174.6875 206.5231 174.6875 206.4021 174.6704C 206.1127 174.6431 204.8065 174.2967 203.6371 172.665C 202.4676 171.0333 201.4008 168.2599 201.1295 163.3215C 201.0881 162.5685 201.6643 161.9241 202.4175 161.8813z" stroke="none" fill="#BCBCBC" fill-rule="evenodd" /><path transform="matrix(1 0 0 -1 0 512)" d="M232.7896 183.688C 231.3601 183.6944 230.0364 182.9357 229.3199 181.6991C 228.6033 180.4626 228.6033 178.9373 229.3199 177.7007C 230.0364 176.4642 231.3601 175.7054 232.7896 175.7119C 234.219 175.7054 235.5427 176.4642 236.2592 177.7007C 236.9758 178.9373 236.9758 180.4626 236.2592 181.6991C 235.5427 182.9357 234.219 183.6944 232.7896 183.688zM225.4175 161.8813L225.4927 161.8813C 226.2213 161.8802 226.8228 162.4505 226.8605 163.178C 227.1066 167.6833 228.0595 169.9372 228.8026 170.9923L228.8026 170.9923L228.8026 151.6695C 228.8072 150.6658 229.6223 149.8545 230.6263 149.8545C 231.6302 149.8545 232.4454 150.6658 232.4499 151.6695L232.4499 151.6695L232.4499 161.013L232.4499 161.013L233.1338 161.013L233.1338 161.013L233.1338 151.6695C 233.1383 150.6658 233.9535 149.8545 234.9574 149.8545C 235.9614 149.8545 236.7765 150.6658 236.7811 151.6695L236.7811 151.6695L236.7811 170.9809C 236.8563 170.8738 236.9315 170.753 237.009 170.6254C 237.6929 169.4563 238.4975 167.2184 238.7209 163.1711C 238.7609 162.4454 239.3617 161.8779 240.0887 161.879L240.0887 161.879L240.1662 161.879C 240.9185 161.9242 241.4924 162.5693 241.4496 163.3215C 241.1761 168.2553 240.1138 171.0356 238.942 172.665C 237.7704 174.2944 236.4642 174.6431 236.177 174.6704C 236.0553 174.6875 235.9317 174.6875 235.81 174.6704C 235.7535 174.6811 235.6964 174.6872 235.639 174.6887L235.639 174.6887L229.9401 174.6887C 229.882 174.6872 229.8241 174.6811 229.7668 174.6704C 229.6459 174.6875 229.5231 174.6875 229.4021 174.6704C 229.1127 174.6431 227.8064 174.2967 226.6371 172.665C 225.4676 171.0333 224.4008 168.2599 224.1295 163.3215C 224.0881 162.5685 224.6643 161.9241 225.4175 161.8813z" stroke="none" fill="#BCBCBC" fill-rule="evenodd" /><path transform="matrix(1 0 0 -1 0 512)" d="M254.7896 183.688C 253.3601 183.6944 252.0364 182.9357 251.3199 181.6991C 250.6033 180.4626 250.6033 178.9373 251.3199 177.7007C 252.0364 176.4642 253.3601 175.7054 254.7896 175.7119C 256.219 175.7054 257.5427 176.4642 258.2592 177.7007C 258.9758 178.9373 258.9758 180.4626 258.2592 181.6991C 257.5427 182.9357 256.219 183.6944 254.7896 183.688zM247.4175 161.8813L247.4927 161.8813C 248.2213 161.8802 248.8228 162.4505 248.8605 163.178C 249.1066 167.6833 250.0595 169.9372 250.8026 170.9923L250.8026 170.9923L250.8026 151.6695C 250.8071 150.6658 251.6223 149.8545 252.6263 149.8545C 253.6302 149.8545 254.4454 150.6658 254.4499 151.6695L254.4499 151.6695L254.4499 161.013L254.4499 161.013L255.1338 161.013L255.1338 161.013L255.1338 151.6695C 255.1382 150.6658 255.9534 149.8545 256.9574 149.8545C 257.9614 149.8545 258.7765 150.6658 258.7811 151.6695L258.7811 151.6695L258.7811 170.9809C 258.8563 170.8738 258.9315 170.753 259.009 170.6254C 259.6929 169.4563 260.4975 167.2184 260.7209 163.1711C 260.7609 162.4454 261.3617 161.8779 262.0886 161.879L262.0886 161.879L262.1662 161.879C 262.9185 161.9242 263.4923 162.5693 263.4496 163.3215C 263.176 168.2553 262.1138 171.0356 260.942 172.665C 259.7704 174.2944 258.4642 174.6431 258.177 174.6704C 258.0553 174.6875 257.9317 174.6875 257.81 174.6704C 257.7535 174.6811 257.6964 174.6872 257.639 174.6887L257.639 174.6887L251.9401 174.6887C 251.8819 174.6872 251.8241 174.6811 251.7668 174.6704C 251.6459 174.6875 251.5231 174.6875 251.4021 174.6704C 251.1127 174.6431 249.8064 174.2967 248.6371 172.665C 247.4676 171.0333 246.4008 168.2599 246.1295 163.3215C 246.0881 162.5685 246.6643 161.9241 247.4175 161.8813z" stroke="none" fill="#BCBCBC" fill-rule="evenodd" /><path transform="matrix(1 0 0 -1 0 512)" d="M277.7896 183.688C 276.3601 183.6944 275.0364 182.9357 274.3199 181.6991C 273.6033 180.4626 273.6033 178.9373 274.3199 177.7007C 275.0364 176.4642 276.3601 175.7054 277.7896 175.7119C 279.219 175.7054 280.5427 176.4642 281.2592 177.7007C 281.9758 178.9373 281.9758 180.4626 281.2592 181.6991C 280.5427 182.9357 279.219 183.6944 277.7896 183.688zM270.4175 161.8813L270.4927 161.8813C 271.2213 161.8802 271.8228 162.4505 271.8605 163.178C 272.1066 167.6833 273.0595 169.9372 273.8026 170.9923L273.8026 170.9923L273.8026 151.6695C 273.8072 150.6658 274.6223 149.8545 275.6263 149.8545C 276.6302 149.8545 277.4454 150.6658 277.4499 151.6695L277.4499 151.6695L277.4499 161.013L277.4499 161.013L278.1338 161.013L278.1338 161.013L278.1338 151.6695C 278.1383 150.6658 278.9535 149.8545 279.9574 149.8545C 280.9614 149.8545 281.7765 150.6658 281.7811 151.6695L281.7811 151.6695L281.7811 170.9809C 281.8563 170.8738 281.9315 170.753 282.009 170.6254C 282.6929 169.4563 283.4975 167.2184 283.7209 163.1711C 283.7609 162.4454 284.3617 161.8779 285.0887 161.879L285.0887 161.879L285.1662 161.879C 285.9185 161.9242 286.4924 162.5693 286.4496 163.3215C 286.1761 168.2553 285.1138 171.0356 283.942 172.665C 282.7704 174.2944 281.4642 174.6431 281.177 174.6704C 281.0553 174.6875 280.9317 174.6875 280.81 174.6704C 280.7535 174.6811 280.6964 174.6872 280.639 174.6887L280.639 174.6887L274.9401 174.6887C 274.882 174.6872 274.8241 174.6811 274.7668 174.6704C 274.6459 174.6875 274.5231 174.6875 274.4021 174.6704C 274.1127 174.6431 272.8064 174.2967 271.6371 172.665C 270.4676 171.0333 269.4008 168.2599 269.1295 163.3215C 269.0881 162.5685 269.6643 161.9241 270.4175 161.8813z" stroke="none" fill="#BCBCBC" fill-rule="evenodd" /><path transform="matrix(1 0 0 -1 0 512)" d="M519.125 300.688L599.125 300.688L599.125 300.688L599.125 340.688L599.125 340.688L519.125 340.688z" stroke="none" fill="#FBC02D" fill-rule="evenodd" /><path transform="matrix(1 0 0 -1 0 512)" d="M599.125 300.688L679.125 300.688L679.125 300.688L679.125 340.688L679.125 340.688L599.125 340.688z" stroke="none" fill="#FBC02D" fill-rule="evenodd" /><path transform="matrix(1 0 0 -1 0 512)" d="M679.125 300.688L759.125 300.688L759.125 300.688L759.125 340.688L759.125 340.688L679.125 340.688z" stroke="none" fill="#FBC02D" fill-rule="evenodd" /><path transform="matrix(1 0 0 -1 0 512)" d="M759.125 300.688L839.125 300.688L839.125 300.688L839.125 340.688L839.125 340.688L759.125 340.688z" stroke="none" fill="#FBC02D" fill-rule="evenodd" /><path transform="matrix(1 0 0 -1 0 512)" d="M519.125 252.358L599.125 252.358L599.125 252.358L599.125 300.688L599.125 300.688L519.125 300.688z" stroke="none" fill="#EDEDED" fill-rule="evenodd" /><path transform="matrix(1 0 0 -1 0 512)" d="M599.125 252.358L679.125 252.358L679.125 252.358L679.125 300.688L679.125 300.688L599.125 300.688z" stroke="none" fill="#EDEDED" fill-rule="evenodd" /><path transform="matrix(1 0 0 -1 0 512)" d="M679.125 252.358L759.125 252.358L759.125 252.358L759.125 300.688L759.125 300.688L679.125 300.688z" stroke="none" fill="#EDEDED" fill-rule="evenodd" /><path transform="matrix(1 0 0 -1 0 512)" d="M759.125 252.358L839.125 252.358L839.125 252.358L839.125 300.688L839.125 300.688L759.125 300.688z" stroke="none" fill="#EDEDED" fill-rule="evenodd" /><path transform="matrix(1 0 0 -1 0 512)" d="M519.125 204.028L599.125 204.028L599.125 204.028L599.125 252.358L599.125 252.358L519.125 252.358z" stroke="none" fill="#EDEDED" fill-rule="evenodd" /><path transform="matrix(1 0 0 -1 0 512)" d="M599.125 204.028L679.125 204.028L679.125 204.028L679.125 252.358L679.125 252.358L599.125 252.358z" stroke="none" fill="#EDEDED" fill-rule="evenodd" /><path transform="matrix(1 0 0 -1 0 512)" d="M679.125 204.028L759.125 204.028L759.125 204.028L759.125 252.358L759.125 252.358L679.125 252.358z" stroke="none" fill="#EDEDED" fill-rule="evenodd" /><path transform="matrix(1 0 0 -1 0 512)" d="M759.125 204.028L839.125 204.028L839.125 204.028L839.125 252.358L839.125 252.358L759.125 252.358z" stroke="none" fill="#EDEDED" fill-rule="evenodd" /><path transform="matrix(1 0 0 -1 0 512)" d="M519.125 164.028L599.125 164.028L599.125 164.028L599.125 204.028L599.125 204.028L519.125 204.028z" stroke="none" fill="#EDEDED" fill-rule="evenodd" /><path transform="matrix(1 0 0 -1 0 512)" d="M599.125 164.028L679.125 164.028L679.125 164.028L679.125 204.028L679.125 204.028L599.125 204.028z" stroke="none" fill="#EDEDED" fill-rule="evenodd" /><path transform="matrix(1 0 0 -1 0 512)" d="M679.125 164.028L759.125 164.028L759.125 164.028L759.125 204.028L759.125 204.028L679.125 204.028z" stroke="none" fill="#EDEDED" fill-rule="evenodd" /><path transform="matrix(1 0 0 -1 0 512)" d="M759.125 164.028L839.125 164.028L839.125 164.028L839.125 204.028L839.125 204.028L759.125 204.028z" stroke="none" fill="#EDEDED" fill-rule="evenodd" /><path transform="matrix(1 0 0 -1 0 512)" d="M519.125 115.698L599.125 115.698L599.125 115.698L599.125 164.028L599.125 164.028L519.125 164.028z" stroke="none" fill="#EDEDED" fill-rule="evenodd" /><path transform="matrix(1 0 0 -1 0 512)" d="M599.125 115.698L679.125 115.698L679.125 115.698L679.125 164.028L679.125 164.028L599.125 164.028z" stroke="none" fill="#EDEDED" fill-rule="evenodd" /><path transform="matrix(1 0 0 -1 0 512)" d="M679.125 115.698L759.125 115.698L759.125 115.698L759.125 164.028L759.125 164.028L679.125 164.028z" stroke="none" fill="#EDEDED" fill-rule="evenodd" /><path transform="matrix(1 0 0 -1 0 512)" d="M759.125 115.698L839.125 115.698L839.125 115.698L839.125 164.028L839.125 164.028L759.125 164.028z" stroke="none" fill="#EDEDED" fill-rule="evenodd" /><path transform="matrix(1 0 0 -1 0 512)" d="M599.125 341.063L599.125 115.323" stroke="#FFFFFE" stroke-width="0.75" fill="none" /><path transform="matrix(1 0 0 -1 0 512)" d="M679.125 341.063L679.125 115.323" stroke="#FFFFFE" stroke-width="0.75" fill="none" /><path transform="matrix(1 0 0 -1 0 512)" d="M759.125 341.063L759.125 115.323" stroke="#FFFFFE" stroke-width="0.75" fill="none" /><path transform="matrix(1 0 0 -1 0 512)" d="M518.7501 300.688L839.5 300.688" stroke="#FFFFFE" stroke-width="0.75" fill="none" /><path transform="matrix(1 0 0 -1 0 512)" d="M518.7501 252.358L839.5 252.358" stroke="#FFFFFE" stroke-width="0.75" fill="none" /><path transform="matrix(1 0 0 -1 0 512)" d="M518.7501 204.028L839.5 204.028" stroke="#FFFFFE" stroke-width="0.75" fill="none" /><path transform="matrix(1 0 0 -1 0 512)" d="M518.7501 164.028L839.5 164.028" stroke="#FFFFFE" stroke-width="0.75" fill="none" /><path transform="matrix(1 0 0 -1 0 512)" d="M519.125 341.063L519.125 115.323" stroke="#FFFFFE" stroke-width="0.75" fill="none" /><path transform="matrix(1 0 0 -1 0 512)" d="M839.125 341.063L839.125 115.323" stroke="#FFFFFE" stroke-width="0.75" fill="none" /><path transform="matrix(1 0 0 -1 0 512)" d="M518.7501 340.688L839.5 340.688" stroke="#FFFFFE" stroke-width="0.75" fill="none" /><path transform="matrix(1 0 0 -1 0 512)" d="M518.7501 115.698L839.5 115.698" stroke="#FFFFFE" stroke-width="0.75" fill="none" /><g clip-path="url(#3)"></g><g clip-path="url(#4)"></g><g clip-path="url(#5)"></g><g clip-path="url(#6)"></g><g clip-path="url(#7)"></g><g clip-path="url(#8)"></g><g clip-path="url(#9)"></g><g clip-path="url(#10)"></g><g clip-path="url(#11)"></g><path transform="matrix(1 0 0 -1 0 512)" d="M450.2 125L459.8 125L459.8 125L459.8 106.5L459.8 106.5L467 106.5L467 106.5L455 88.00001L455 88.00001L443 106.5L443 106.5L450.2 106.5z" stroke="none" fill="#FBC02D" fill-rule="evenodd" /></g></g></g></svg>