<svg xmlns="http://www.w3.org/2000/svg" xmlns:xlink="http://www.w3.org/1999/xlink" id="body_8" preserveAspectRatio="xMinYMin meet" viewBox="0 0 1213 683"><defs><clipPath id="1"><path d="M0 512L0 0L0 0L910 0L910 0L910 512L910 512L0 512z" /></clipPath><clipPath id="2"><path d="M0 511.92L909.84 511.92L909.84 511.92L909.84 0L909.84 0L0 0z" /></clipPath><clipPath id="3"><path d="M315 190.5649L553.6201 190.5649L553.6201 190.5649L553.6201 429.1849L553.6201 429.1849L315 429.1849z" /></clipPath><clipPath id="4"><path d="M314.88 429.36L553.68 429.36L553.68 429.36L553.68 190.32L553.68 190.32L314.88 190.32z" /></clipPath></defs><g transform="matrix(1.333333 0 0 1.333333 0 0)"><g><g clip-path="url(#1)"><g clip-path="url(#2)"><path transform="matrix(1 0 0 -1 0 512)" d="M0 512L909.84 512L909.84 512L909.84 0.08001144L909.84 0.08001144L0 0.08001144z" stroke="none" fill="#FFFFFE" fill-rule="winding" /></g><path transform="matrix(1 0 0 -1 0 512)" d="M0 512L910 512L910 512L910 1.335144E-05L910 1.335144E-05L0 1.335144E-05z" stroke="none" fill="#FFFFFE" fill-rule="winding" /><path transform="matrix(1 0 0 -1 0 512)" d="M357.005 416.9056L553.6201 416.9055" stroke="#FFC000" stroke-width="2" fill="none" /><path transform="matrix(1 0 0 -1 0 512)" d="M858.7509 471.215L882.2412 471.2149" stroke="#BEBEBE" stroke-width="0.5" fill="none" /><g clip-path="url(#3)"><g clip-path="url(#4)"><g transform="matrix(1.1931 0 0 1.1931 315 190.5648)"><g transform="matrix(1 0 0 1 0 0)"><image x="0" y="0" xlink:href="img_20.png" width="200" height="200" /></g></g></g></g><path transform="matrix(1 0 0 -1 0 512)" d="M314.625 321.8101L553.9951 321.8101L553.9951 321.8101L553.9951 82.44L553.9951 82.44L314.625 82.44z" stroke="#FFFFFE" stroke-width="0.75" fill="none" stroke-opacity="0" /><path transform="matrix(1 0 0 -1 0 512)" d="M90.81252 273.75C 90.79488 277.6917 92.88756 281.3414 96.29827 283.3173C 99.7089 285.2933 103.9161 285.2933 107.3268 283.3173C 110.7374 281.3414 112.8302 277.6917 112.8125 273.75C 112.8302 269.8084 110.7374 266.1586 107.3268 264.1827C 103.9161 262.2067 99.7089 262.2067 96.29827 264.1827C 92.88756 266.1586 90.79488 269.8084 90.81252 273.75z" stroke="none" fill="#FFC000" fill-rule="evenodd" /><path transform="matrix(1 0 0 -1 0 512)" d="M90.81252 201.75C 90.79488 205.6917 92.88756 209.3414 96.29827 211.3173C 99.7089 213.2933 103.9161 213.2933 107.3268 211.3173C 110.7374 209.3414 112.8302 205.6917 112.8125 201.75C 112.8302 197.8084 110.7374 194.1586 107.3268 192.1827C 103.9161 190.2067 99.7089 190.2067 96.29827 192.1827C 92.88756 194.1586 90.79488 197.8084 90.81252 201.75z" stroke="none" fill="#FFC000" fill-rule="evenodd" /><path transform="matrix(1 0 0 -1 0 512)" d="M90.81252 128.75C 90.79488 132.6917 92.88756 136.3414 96.29827 138.3173C 99.7089 140.2933 103.9161 140.2933 107.3268 138.3173C 110.7374 136.3414 112.8302 132.6917 112.8125 128.75C 112.8302 124.8084 110.7374 121.1586 107.3268 119.1827C 103.9161 117.2067 99.7089 117.2067 96.29827 119.1827C 92.88756 121.1586 90.79488 124.8084 90.81252 128.75z" stroke="none" fill="#FFC000" fill-rule="evenodd" /><path transform="matrix(1 0 0 -1 0 512)" d="M622.938 274.125C 622.9204 278.0666 625.0131 281.7165 628.4237 283.6924C 631.8344 285.6683 636.0416 285.6683 639.4522 283.6924C 642.8629 281.7165 644.9556 278.0666 644.938 274.125C 644.9556 270.1834 642.8629 266.5335 639.4522 264.5576C 636.0416 262.5817 631.8344 262.5817 628.4237 264.5576C 625.0131 266.5335 622.9204 270.1834 622.938 274.125z" stroke="none" fill="#FFC000" fill-rule="evenodd" /><path transform="matrix(1 0 0 -1 0 512)" d="M622.938 202.1251C 622.9204 206.0666 625.0131 209.7165 628.4237 211.6924C 631.8344 213.6683 636.0416 213.6683 639.4522 211.6924C 642.8629 209.7165 644.9556 206.0666 644.938 202.1251C 644.9556 198.1834 642.8629 194.5336 639.4522 192.5577C 636.0416 190.5818 631.8344 190.5818 628.4237 192.5577C 625.0131 194.5336 622.9204 198.1834 622.938 202.1251z" stroke="none" fill="#FFC000" fill-rule="evenodd" /><path transform="matrix(1 0 0 -1 0 512)" d="M622.938 129.125C 622.9204 133.0666 625.0131 136.7165 628.4237 138.6924C 631.8344 140.6683 636.0416 140.6683 639.4522 138.6924C 642.8629 136.7165 644.9556 133.0666 644.938 129.125C 644.9556 125.1834 642.8629 121.5335 639.4522 119.5576C 636.0416 117.5817 631.8344 117.5817 628.4237 119.5576C 625.0131 121.5335 622.9204 125.1834 622.938 129.125z" stroke="none" fill="#FFC000" fill-rule="evenodd" /></g></g></g></svg>